<?xml version="1.0" encoding="UTF-8" standalone="no"?>
<!-- Created with Inkscape (http://www.inkscape.org/) -->

<svg
   width="1920"
   height="1080"
   viewBox="0 0 1920 1080"
   version="1.1"
   id="svg1"
   xml:space="preserve"
   inkscape:version="1.4.2 (ebf0e94, 2025-05-08)"
   sodipodi:docname="dibujo.svg"
   xmlns:inkscape="http://www.inkscape.org/namespaces/inkscape"
   xmlns:sodipodi="http://sodipodi.sourceforge.net/DTD/sodipodi-0.dtd"
   xmlns="http://www.w3.org/2000/svg"
   xmlns:svg="http://www.w3.org/2000/svg"><sodipodi:namedview
     id="namedview1"
     pagecolor="#ffffff"
     bordercolor="#000000"
     borderopacity="0.25"
     inkscape:showpageshadow="2"
     inkscape:pageopacity="0.0"
     inkscape:pagecheckerboard="0"
     inkscape:deskcolor="#d1d1d1"
     inkscape:document-units="px"
     inkscape:lockguides="true"
     inkscape:zoom="0.45833333"
     inkscape:cx="1124.7273"
     inkscape:cy="-158.18182"
     inkscape:window-width="1360"
     inkscape:window-height="697"
     inkscape:window-x="-8"
     inkscape:window-y="-8"
     inkscape:window-maximized="1"
     inkscape:current-layer="layer1" /><defs
     id="defs1"><inkscape:path-effect
       effect="bend_path"
       id="path-effect14"
       is_visible="true"
       lpeversion="1"
       bendpath="M 665.56967,321.50709 C 965.55543,-17.540212 1380.8646,170.01783 1446.35,336.77982"
       prop_scale="2.5401137"
       scale_y_rel="false"
       vertical="false"
       hide_knot="false"
       bendpath-nodetypes="cc" /><clipPath
       clipPathUnits="userSpaceOnUse"
       id="clipPath6"><path
         id="path7"
         style="fill:#ff0000;fill-opacity:1;fill-rule:nonzero;stroke:none"
         d="m 523.85938,85.3125 v 915.9199 H 1594.6875 V 85.3125 Z m 496.26562,7.001953 c 0.1776,-0.0079 0.3575,-0.0067 0.5371,0.002 8.0804,0.390904 10.5887,4.215455 13.0918,9.964847 1.9641,5.8299 3.6362,11.80798 4.4063,17.92383 0.8823,5.60411 1.65,11.21834 2.5175,16.82226 1.3068,6.01515 3.0643,11.9213 4.2129,17.97266 1.0841,6.18533 2.0824,12.37615 3.0742,18.57617 1.4885,8.21434 2.6765,16.47998 3.4883,24.79102 0.061,1.2813 0.1061,2.56202 0.1407,3.84375 2.838,0.39833 4.9018,0.8648 5.125,1.38867 7.7839,18.27329 3.944,21.40529 -4.8731,22.95508 0,0.33023 0.01,0.66 0.016,0.99023 0.909,4.0806 2.6621,7.73356 4.8438,11.35742 4.0067,6.44959 6.5315,13.6609 8.4902,20.95508 0.6116,2.27749 0.9006,4.37409 0.9238,6.27344 10.0469,6.22448 19.3128,14.1354 16.8614,27.85742 -1.5197,8.50572 -9.2055,13.83733 -15.9141,18.39453 -0.4334,0.84631 -0.9174,1.6902 -1.4531,2.53321 -0.9391,1.47766 -2.3801,2.5695 -3.5703,3.85351 -1.8523,0.82005 -3.5745,2.28989 -5.461,2.93945 0.083,2.50888 0.1854,5.01622 0.3145,7.52344 0.4827,7.5929 1.3263,15.14386 2.6113,22.64649 1.069,7.67751 1.8989,15.39277 2.5449,23.11718 0.5152,6.43386 0.5853,12.86341 0.4883,19.31641 0,6.99263 -0.01,13.98592 -0.029,20.97852 -0.023,6.89046 -0.046,13.78015 -0.1543,20.66992 -0.1188,6.42023 -0.2971,12.83973 -0.5586,19.25586 -0.2372,6.64724 -0.5609,13.32474 0.5918,19.91601 1.2216,7.2604 3.0721,14.39559 4.334,21.65039 2.2141,10.50914 4.0928,21.10876 4.6406,31.85547 0.7004,8.91293 1.4577,17.86133 -0.1152,26.73633 -3.7691,21.26749 -24.6934,17.06815 -21.3945,-4.27734 1.0685,-6.91413 0.3033,-13.8261 -0.2422,-20.7461 -0.4718,-9.80961 -2.2117,-19.47807 -4.2363,-29.0664 -1.3439,-7.53127 -3.202,-14.95488 -4.4961,-22.49414 -1.4292,-8.05447 -1.1753,-16.21882 -0.8868,-24.34961 0.2565,-6.29183 0.4329,-12.58694 0.5489,-18.88282 0.1058,-6.77991 0.1274,-13.56121 0.1504,-20.34179 0.019,-6.97257 0.029,-13.94537 0.029,-20.91797 0.076,-5.86176 0.062,-11.70007 -0.4161,-17.54297 -0.6241,-7.2948 -1.3718,-14.58676 -2.4043,-21.83594 -1.376,-8.04489 -2.2511,-16.14874 -2.7793,-24.28906 -0.558,-10.57631 -0.6499,-21.16958 -0.7714,-31.75781 0.091,-3.2123 0.047,-6.41469 -0.1016,-9.61133 -2.8151,-1.9609 -5.0665,-4.4174 -5.9648,-8.16992 -3.6146,-2.09729 -7.6417,-3.53438 -11.2442,-5.57813 -7.0459,4.09703 -14.308,7.69891 -22.33788,9.60156 -21.01697,4.9799 -26.32804,-16.27348 -5.29101,-21.16796 6.1669,-1.4348 11.63379,-4.28762 16.98829,-7.46094 -3.3135,-3.20245 -6.1684,-6.76275 -8.34181,-10.77735 -3.5801,-6.6129 -3.12278,-13.39666 -1.26562,-19.92578 -0.54989,-2.87907 0.44867,-5.51314 3.10351,-8.47461 1.92322,-4.30417 2.91932,-7.10501 6.95122,-10.65625 4.6064,-4.05731 10.3956,-5.41493 16.3027,-5.8457 -1.0303,-4.69258 -2.0908,-9.37836 -3.3613,-14.01367 -1.6646,-6.40891 -3.9935,-12.58752 -6.9961,-18.49805 -2.8081,-6.80339 -5.3266,-13.73978 -6.8399,-20.96094 -1.6051,-7.05266 -2.4437,-14.09414 -1.5722,-21.32812 0.5431,-7.69944 1.0575,-15.51555 3.6367,-22.85547 1.0919,-2.2118 2.564,-5.884987 4.7578,-7.328127 2.2535,-1.482392 4.6862,-3.389659 7.3496,-3.507813 z m -7.3164,16.548827 v 0.002 0.002 0.002 c -0.01,0.082 0.2889,0.78676 0.3516,0.83789 v 0.002 c 0.035,0.0221 0.07,0.0441 0.1054,0.0664 -0.044,-0.1239 -0.088,-0.24751 -0.1328,-0.37109 -0.1872,-0.35899 -0.28,-0.50861 -0.3125,-0.53516 v -0.002 -0.002 -0.002 z m 17.0234,173.18945 c 0.1661,0.28339 0.3416,0.55991 0.5293,0.83008 0.1504,0.21636 0.8672,0.3567 0.9532,0.28321 6e-4,-7.3e-4 0,-0.005 0,-0.006 v -0.002 -0.002 -0.002 -0.002 -0.002 c -10e-5,-9.5e-4 10e-5,-0.005 0,-0.006 0,-0.0124 -0.016,-0.0306 -0.039,-0.0488 -0.471,-0.36775 -0.9561,-0.71315 -1.4512,-1.04297 z" /></clipPath><clipPath
       clipPathUnits="userSpaceOnUse"
       id="clipPath13"><path
         id="path14"
         style="fill:#ff0000;fill-opacity:1;fill-rule:nonzero;stroke:none;stroke-width:1.00009"
         d="m 640.00323,252.54326 -61.12403,669.98097 781.9017,56.69593 61.124,-669.98097 z M 969.70195,283.579 c 4.56778,0.55204 8.19489,4.70461 7.97374,11.29254 2.24809,2.38562 3.99069,6.09748 4.61171,11.22528 0.59014,4.87278 0.6424,9.74429 0.80942,14.65244 0.517,6.49983 1.80041,12.86772 2.73273,19.30673 0.40352,6.43484 1.23166,12.82233 1.86427,19.23199 0.9405,7.23505 1.88469,14.46606 2.92304,21.68579 0.41779,6.05533 0.0888,12.08893 0.0468,18.16075 0.12402,5.42348 0.60259,10.80925 1.70825,16.11207 0.94718,5.54426 1.19603,11.17096 2.13865,16.71793 0.90397,5.60574 2.01969,11.17524 2.66621,16.81699 0.30241,5.84078 1.02244,11.62957 1.90604,17.39925 0.68663,6.08683 1.63099,12.1469 1.81519,18.28899 0.4098,6.37662 1.0749,12.73887 0.8946,19.1499 -0.105,5.61066 -0.6644,11.2069 -0.6984,16.82013 -0.016,5.65388 0.1501,11.31378 1.0894,16.88505 1.2318,7.66373 2.8767,15.26805 3.3826,23.04492 0.2427,4.06587 0.4741,8.14391 0.4455,12.22351 0.1969,1.36368 0.3254,2.47481 0.3679,2.77246 0.7869,5.6875 2.259,11.23721 3.0856,16.91994 0.5323,3.31331 0.8896,6.67128 1.5716,9.94772 4.3855,21.0665 -13.08042,28.53664 -20.32426,8.32475 -1.65646,-4.62186 -2.0187,-9.58271 -2.79513,-14.41594 -0.72389,-4.56842 -1.73047,-9.0736 -2.54072,-13.62082 -1.03743,-1.62844 -1.46948,-4.80859 -1.59131,-6.46792 -0.0612,-0.83239 -0.0588,-1.71768 -0.0685,-2.55461 -0.0475,-2.39253 -0.10892,-3.75036 0.35483,-4.5597 0.027,-0.60369 0.0474,-1.18979 0.0286,-1.72972 -0.0587,-1.71355 -0.21501,-3.41943 -0.31721,-5.13013 -0.52697,-7.04341 -2.02333,-13.93882 -3.14652,-20.88808 -1.13003,-6.72595 -1.37378,-13.55581 -1.36568,-20.3824 -0.0646,-5.70216 0.66019,-11.39159 0.70329,-17.08847 0.15678,-5.83856 -0.47684,-11.62933 -0.85309,-17.43667 -0.16752,-5.79284 -1.07253,-11.50701 -1.72424,-17.24683 -0.97506,-6.19147 -1.67114,-12.41635 -2.01196,-18.6857 -0.74759,-4.83946 -1.63159,-9.66509 -2.41882,-14.50632 -1.08995,-5.40575 -1.05522,-10.97802 -2.08078,-16.3862 -1.30819,-6.37315 -1.86246,-12.85132 -2.03819,-19.36423 -0.14066,-5.70591 0.48241,-11.40342 0.008,-17.08984 -1.0638,-6.81491 -1.91403,-13.66012 -2.80379,-20.50236 -0.70324,-6.8763 -1.54858,-13.73589 -2.00013,-20.64021 -1.1753,-6.26039 -2.16143,-12.54733 -2.70269,-18.9064 -0.075,-0.93849 -0.12186,-1.87805 -0.15416,-2.81775 -10.69204,4.79896 -19.23426,-3.40442 -9.83059,-17.36197 1.63516,-2.42702 3.08969,-4.90827 4.17469,-7.61687 3.28428,-8.19885 8.62454,-11.70708 13.23837,-11.64118 0.31202,0.004 0.62007,0.0244 0.9246,0.061 z m 14.42264,290.83785 -1.8e-4,0.002 -1.8e-4,0.002 -1.9e-4,0.002 -1.8e-4,0.002 c -0.0259,0.10807 0.0653,1.10679 0.3118,1.88385 -0.0994,-0.71183 -0.19844,-1.38233 -0.26424,-1.73919 -0.0163,-0.0856 -0.0289,-0.13337 -0.0376,-0.14786 l 1.8e-4,-0.002 1.8e-4,-0.002 z" /></clipPath></defs><g
     inkscape:label="Capa 1"
     inkscape:groupmode="layer"
     id="layer1"><path
       style="fill:#ffffff;fill-opacity:1;stroke:#010101;stroke-width:4.42745;stroke-linecap:square;stroke-opacity:1"
       id="path1"
       sodipodi:type="arc"
       sodipodi:cx="1059.2726"
       sodipodi:cy="543.27271"
       sodipodi:rx="533.19971"
       sodipodi:ry="455.745"
       sodipodi:start="4.6416909"
       sodipodi:end="4.6361919"
       sodipodi:arc-type="slice"
       d="M 1021.6078,88.666192 A 533.19971,455.745 0 0 1 1591.088,510.4543 533.19971,455.745 0 0 1 1098.3996,997.78898 533.19971,455.745 0 0 1 527.56471,577.3408 533.19971,455.745 0 0 1 1018.6836,88.850097 l 40.589,454.422613 z"
       clip-path="url(#clipPath6)" /><path
       style="fill:#ffffff;fill-opacity:1;stroke:#010101;stroke-width:4.82453;stroke-linecap:square;stroke-opacity:1"
       id="path8"
       sodipodi:type="arc"
       sodipodi:cx="1000.3923"
       sodipodi:cy="615.88159"
       sodipodi:rx="389.92969"
       sodipodi:ry="333.54407"
       sodipodi:start="4.6416909"
       sodipodi:end="4.6361919"
       sodipodi:arc-type="slice"
       d="M 972.84795,283.17074 A 389.92969,333.54407 0 0 1 1389.3097,591.86293 389.92969,333.54407 0 0 1 1029.0059,948.5264 389.92969,333.54407 0 0 1 611.55356,640.81486 389.92969,333.54407 0 0 1 970.70951,283.30533 l 29.68279,332.57626 z"
       transform="matrix(0.99738949,-0.07220949,0.09099433,0.99585141,0,0)"
       clip-path="url(#clipPath13)" /><path
       d="m 718.56375,286.23743 c -0.96531,-1.54313 -1.9282,-3.08808 -2.88865,-4.63487 -22.53536,-36.23474 -36.06113,-62.20353 -41.07212,-74.1019 -0.64115,-1.75928 -1.09176,-3.15945 -1.35456,-4.19315 -0.31525,-1.09432 -0.50462,-2.13959 -0.56792,-3.13577 -0.0328,-1.02246 0.074,-2.1654 0.3233,-3.42787 0.60364,-3.76724 2.69563,-7.17263 6.27393,-10.15531 1.85138,-1.54322 3.27349,-2.1979 4.25085,-1.97428 1.01002,0.19792 2.39346,1.37067 4.15681,3.51753 1.36021,1.65604 2.78901,3.45932 4.28905,5.41123 8.78041,11.18893 15.19964,19.22831 18.99075,23.83548 9.67264,11.75471 19.24994,22.61257 28.6052,32.57526 5.29689,5.51154 10.86774,10.94525 16.69608,16.33511 5.33148,4.66879 9.56147,8.13359 12.72511,10.37965 3.56976,2.43252 6.25756,4.13565 8.11,5.10353 2.39359,1.34033 4.00461,2.55313 4.83722,3.61114 1.52491,1.93774 2.90361,5.07723 4.20686,9.42095 2.03781,7.09936 2.05195,11.4782 -0.0893,13.24068 -3.00708,2.47513 -8.41735,1.48594 -16.41835,-2.83944 -3.94572,-2.05058 -7.95031,-4.62301 -11.9968,-7.72822 -4.0702,-3.18385 -8.74354,-7.38948 -13.98599,-12.60238 -5.287,-5.26488 -11.80499,-12.15625 -19.47369,-20.61094 -8.10847,-8.85822 -13.34506,-14.55598 -14.16672,-15.44686 -0.0553,0.0486 -0.11054,0.0973 -0.16579,0.14592 4.56908,8.66527 8.58315,16.04713 11.72974,21.75313 3.16335,5.73638 5.89106,10.57043 8.00565,14.26928 2.15037,3.69401 4.79053,8.18269 7.85641,13.30654 10.0479,16.73939 15.7147,25.888 17.756,29.83929 0.0624,0.15863 0.21525,0.50706 0.45788,1.04162 0.24288,0.5351 0.41602,0.97226 0.51914,1.31193 0.48138,1.2932 0.71774,2.43711 0.70832,3.43266 -0.0413,0.91646 -0.23079,1.53699 -0.57156,1.86342 -0.95398,0.91384 -3.43336,0.4363 -7.474,-1.39373 -4.07012,-1.90776 -8.86397,-4.77748 -14.37374,-8.59599 -5.81388,-4.07975 -11.57913,-8.37178 -17.27887,-12.89278 -5.72701,-4.59741 -12.35347,-10.17389 -19.85176,-16.70245 -7.52369,-6.60447 -16.59673,-14.80768 -27.1588,-24.54864 -0.0526,0.053 -0.10514,0.106 -0.1577,0.15902 2.87151,4.3895 5.21599,7.92793 6.6349,10.06332 1.42963,2.15153 3.8333,5.74726 6.91974,10.29668 2.74017,4.03902 5.37709,7.88317 5.47893,8.03218 1.97849,2.88433 10.66908,15.57312 12.64757,18.45745 4.29827,6.27436 7.50227,10.9733 9.77458,14.43374 2.26182,3.38516 4.43918,6.80557 6.53529,10.25713 0.999,1.61502 2.28039,3.99954 3.88549,7.17998 1.95082,4.42847 3.11706,8.31693 3.48645,11.67786 0.31084,3.30868 -0.18739,5.69476 -1.52432,7.1867 -0.50919,0.56823 -1.30934,0.7494 -2.40357,0.54582 -1.09389,-0.20351 -2.20724,-0.80319 -3.33678,-1.80226 -1.0098,-0.89317 -2.06253,-2.40173 -3.14293,-4.52848 -0.77539,-1.36335 -2.74646,-4.46812 -6.05189,-9.66406 -2.02146,-3.09468 -4.03103,-6.19988 -6.0285,-9.31558 -3.66794,-5.87464 -9.90887,-15.01556 -19.52342,-29.27789 3.13321,-0.47767 6.26164,-0.92987 9.38465,-1.35637 -14.50729,-21.85417 -39.5637,-44.96971 -44.7052,-53.12722 -5.22061,-8.24776 -8.25365,-12.86101 -9.36121,-13.94577 -1.19086,-1.16634 -2.93935,-2.05067 -5.24977,-2.63772 -1.71884,-0.39848 -2.97811,-0.9807 -3.77601,-1.75553 -1.25331,-1.21707 -1.616,-3.18451 -1.05985,-5.90713 0.49943,-2.77816 1.72642,-5.14823 3.67098,-7.09065 3.92229,-3.91797 8.45511,-4.93631 13.49286,-3.07324 3.13795,1.16554 8.23168,4.52548 15.25865,10.11277 6.97043,5.52862 16.68349,13.98806 29.09131,25.41983 0.70838,0.64036 1.26823,1.15107 1.6766,1.5288 0.35434,0.32056 0.68122,0.61242 0.98079,0.87551 0.29969,0.26304 0.66766,0.62524 1.10427,1.08664 1.68653,1.46219 2.77755,2.4574 3.26712,2.97528 7.6142,6.93707 12.52428,11.33904 14.89699,13.28964 2.29489,1.8735 4.47147,3.37104 6.52434,4.49375 -10e-6,1e-5 -2e-5,2e-5 -2e-5,3e-5 z m 70.59013,-25.83989 c -0.20688,-2.88704 -0.68829,-5.56681 -1.46102,-8.03783 -1.54533,-5.22804 -3.81337,-10.8733 -6.81739,-16.90361 -1.85294,-4.02876 -4.13105,-8.39723 -6.83504,-13.08744 -2.70665,-4.69481 -5.3843,-8.96437 -8.05877,-12.81108 -2.4917,-3.58384 -4.08825,-5.13227 -4.78792,-4.64309 -0.97345,0.68061 0.72708,6.32222 5.28529,16.81372 2.77078,6.3078 5.7915,12.44488 9.03577,18.42084 3.22223,5.88445 6.28502,10.79103 9.12264,14.70184 0.98052,1.35136 2.48381,3.19366 4.51644,5.54665 z m 2.31446,3.02662 c 3.08585,3.64383 5.50315,4.83068 7.2749,3.56971 1.9833,-1.41154 2.5302,-6.06701 1.86379,-14.0705 -0.34959,-4.3461 -0.20802,-6.86862 0.35702,-7.54229 0.039,-0.0466 0.0802,-0.0844 0.12333,-0.11336 0.83368,-0.55895 1.96706,-0.55071 3.39132,0.0293 1.42435,0.58004 2.50472,1.43769 3.24744,2.56418 0.78754,1.19448 1.41125,3.01263 1.89395,5.45625 0.43571,2.2058 0.81767,4.42666 1.14805,6.66194 0.33674,2.28708 0.61922,4.58979 0.84962,6.90757 0.41104,4.51889 0.58177,8.44658 0.4858,11.8059 -0.14145,3.29291 -0.54602,6.15548 -1.22988,8.59922 -0.73019,2.37937 -1.70351,4.0203 -2.94765,4.93417 -3.10409,2.2801 -7.25294,1.89005 -12.5509,-1.15139 -5.33108,-3.09572 -10.9609,-8.34867 -16.74128,-15.79824 -4.41928,-5.69543 -8.91417,-12.53221 -13.36488,-20.50777 -4.47896,-8.07212 -8.16461,-15.98507 -11.01876,-23.77572 -3.32201,-9.1288 -5.06522,-17.4664 -5.21324,-25.01528 -0.0748,-9.16469 2.0663,-15.24004 6.16411,-18.05812 1.90121,-1.30747 4.09662,-1.61285 6.56092,-0.91058 1.37951,0.393 2.84259,1.10117 4.3881,2.12487 4.30569,2.77299 8.67944,7.6186 13.22085,14.52465 3.53488,5.37544 6.55896,11.40587 9.1613,18.06609 1.35812,3.42705 2.5291,6.8922 3.52251,10.39037 0.93023,3.27718 1.70472,6.58488 2.331,9.92002 1.13429,5.75775 1.69272,10.4824 1.63369,14.20553 -0.0319,3.70334 -0.67628,6.01099 -1.98414,6.94841 -0.58721,0.42088 -1.44135,0.49805 -2.56697,0.23507 z m 33.99734,-26.16567 c 2e-5,4e-5 1.05762,2.14312 1.05764,2.14317 0.69673,1.1587 1.64022,2.85547 2.84019,5.10121 1.89389,3.39833 3.38327,6.21299 4.46325,8.43353 1.08049,2.22156 1.86481,4.16116 2.3531,5.81382 0.44753,1.58614 0.82618,3.352 1.14309,5.29905 0.84115,5.72036 0.35611,9.1526 -1.55473,10.35906 -1.54935,0.97822 -3.63128,0.23908 -6.27739,-2.21171 -2.61098,-2.45891 -6.06484,-6.96525 -10.29188,-13.48231 -3.35925,-5.17914 -7.29952,-11.75224 -11.72288,-19.64647 -4.45012,-8.00033 -8.24815,-15.26715 -11.40414,-21.83102 6e-5,1.2e-4 -1.3113,-2.83667 -1.31124,-2.83654 -0.25588,-0.40045 -0.70207,-1.29562 -1.33289,-2.6811 -4.69413,-9.80329 -7.90278,-17.23282 -9.66977,-22.20835 -1.81254,-5.05203 -2.83894,-9.36814 -3.0842,-12.95246 -0.0313,-2.8741 0.76691,-4.80749 2.37275,-5.78051 2.32683,-1.40988 5.49738,0.68006 9.46967,6.26195 -0.0335,-1.08812 -0.16165,-2.30406 -0.3835,-3.64811 -0.46662,-2.94875 -0.64673,-4.96419 -0.55915,-6.02426 0.0477,-1.13119 0.42171,-1.90014 1.11844,-2.30355 2.8533,-1.65209 7.62174,3.40959 14.28264,15.14779 3.64278,6.41949 6.85,12.81996 9.65319,19.16967 2.80208,6.34721 4.83752,11.6889 6.096,15.99811 1.28976,4.29723 1.5129,6.6928 0.63473,7.2068 -0.96598,0.56538 -3.96827,-3.42354 -9.00961,-11.97169 -2.66423,-4.5175 -4.85722,-7.96001 -6.60062,-10.34739 -1.75082,-2.47097 -3.29885,-4.27391 -4.64967,-5.41204 1.34398,4.40369 5.94053,13.43505 13.85287,27.2354 4.55276,8.06362 7.34968,13.03357 8.51411,15.16795 z m 3.67518,-91.26973 c 2.73246,-1.05784 5.58501,-0.47337 8.51592,1.74694 2.93572,2.22396 5.52696,5.82723 7.82916,10.8007 2.00079,4.32235 3.42736,8.95078 4.33266,13.87219 0.9375,4.9035 1.23011,9.15722 0.88072,12.75361 -0.31786,3.58408 -1.28491,5.77404 -2.94666,6.59215 -0.97072,0.47791 -1.84477,-0.0616 -2.62125,-1.62623 -0.2812,-0.56664 -0.71252,-1.90889 -1.2812,-4.016 -1.08343,-5.30189 -3.09982,-11.04314 -6.09916,-17.16891 -1.50092,-3.06542 -2.41777,-4.51678 -2.75031,-4.35358 -0.46555,0.22847 -0.50231,1.83875 -0.0881,4.82306 0.41439,2.98557 1.20451,6.35956 2.36977,10.12793 1.74382,5.96612 3.86186,12.1847 6.34469,18.67259 2.50896,6.4598 4.87826,11.82646 7.04145,16.05727 2.45482,4.80117 4.69002,8.44022 6.67069,10.89938 2.01335,2.44891 3.54334,3.40831 4.60996,2.87331 0.98013,-0.49162 1.64995,-2.42234 2.05971,-5.80472 0.40964,-3.38136 0.4708,-7.3337 0.19709,-11.86082 -0.28908,-2.23556 -0.18464,-3.47 0.30008,-3.69819 0.72707,-0.34228 1.54491,0.45868 2.45231,2.40008 4.12952,8.8352 6.4421,17.54125 7.15669,25.98882 0.39751,5.61814 0.15526,10.46696 -0.73933,14.55082 -0.9035,4.00264 -2.22609,6.46463 -4.05263,7.41512 -3.19389,1.66203 -7.21777,0.4481 -12.21363,-3.6071 -4.98328,-4.04498 -9.75746,-10.00002 -14.15169,-17.89748 -4.39674,-7.90199 -8.30907,-16.60058 -11.57966,-26.11971 -3.28179,-9.61437 -5.67245,-19.10923 -7.0883,-28.51936 -1.38377,-9.42747 -1.54764,-17.79234 -0.50843,-25.08017 0.77616,-5.19378 2.5264,-8.44915 5.15211,-9.7213 0.0691,-0.0335 0.13822,-0.0669 0.20734,-0.1004 z m 70.26867,27.81988 c -0.2291,0.33535 -0.45761,0.67086 -0.68555,1.00652 -1.80238,2.34092 -3.19332,3.70644 -4.22743,4.09399 -1.25529,0.47043 -2.16532,-0.0307 -2.72906,-1.51522 -0.19598,-0.51608 -0.46176,-1.99324 -0.7801,-4.41445 -0.55519,-7.00571 -1.80381,-13.30092 -3.87496,-18.88723 -1.18677,-3.20096 -2.51749,-6.00623 -4.00786,-8.41655 -1.51738,-2.48354 -2.59683,-3.60475 -3.22492,-3.36805 -0.5583,0.21041 -0.93957,1.79675 -1.11473,4.75323 -0.3466,8.71651 0.1989,17.33805 1.53597,25.86561 1.36792,8.50314 3.37581,15.81381 5.86037,21.90011 1.64843,4.03805 3.35677,7.24781 5.09683,9.62139 1.77261,2.36418 3.16149,3.34439 4.1875,2.93579 0.87513,-0.34852 1.58202,-3.27766 2.24851,-8.8058 0.70027,-5.56368 1.20011,-12.65892 1.64602,-21.45366 0.13931,-0.97901 0.28128,-1.95826 0.42592,-2.93773 -0.11877,-0.12602 -0.23761,-0.25201 -0.35651,-0.37795 z m 6.46274,26.65689 0.16407,0.44703 c -0.11592,-0.12656 -0.23191,-0.25308 -0.34795,-0.37957 0.1346,9.19082 0.13794,16.73912 -0.11231,22.82102 -0.24915,5.97585 -0.73644,10.60644 -1.54078,13.93632 -0.77529,3.31428 -1.89492,5.28423 -3.41478,5.92608 -3.09499,1.30703 -6.80753,-0.31301 -11.27533,-4.83794 -4.45577,-4.51276 -8.65561,-10.91363 -12.42858,-19.20921 -2.32767,-5.1178 -4.57129,-11.45041 -6.62198,-18.9568 -2.05404,-7.51869 -3.57207,-15.09859 -4.49313,-22.75312 -1.4405,-12.547 -1.00425,-23.85036 1.37723,-33.89799 2.46349,-10.32724 6.66405,-16.56906 12.16041,-18.5751 4.63407,-1.69132 9.16418,-1.03367 13.46886,1.94786 0.92263,0.61879 1.79025,1.31115 2.60335,2.07628 2.99389,2.81822 5.23761,6.61055 6.79577,11.35634 1.46189,4.45259 2.28781,9.39563 2.55214,14.8324 1.83489,-0.6117 3.14158,-0.53389 3.91067,0.21689 0.74663,0.67721 1.62835,2.59966 2.65437,5.77336 -0.0977,-0.30212 0.31808,1.27363 1.25286,4.72556 2.22068,7.53446 4.39706,14.56086 6.50297,21.04778 1.10211,3.39488 1.95285,5.96189 2.54661,7.68577 0.59508,1.72776 1.30521,3.7059 2.13151,5.94283 0.82582,2.23562 1.50344,4.01869 2.0336,5.34888 1.38926,3.47148 2.91136,6.85915 4.55477,10.16662 -0.3401,5.02768 -0.91834,8.84911 -1.78743,11.48455 -0.0269,0.077 -0.0541,0.15301 -0.0816,0.22814 -0.8872,2.4206 -2.09604,3.89577 -3.66003,4.4382 -4.3567,1.51101 -10.04913,-7.28527 -17.10829,-26.50624 -0.82123,-2.23608 -1.43315,-3.99575 -1.83706,-5.28593 10e-6,-1e-5 2e-5,-1e-5 3e-5,-1e-5 z m 46.55558,-32.47801 -1.58976,-6.7203 c -0.88746,3.88047 -1.71407,5.92064 -2.54093,6.12356 -0.46304,0.11363 -0.82769,-0.36844 -1.09421,-1.44728 -0.11393,-0.46113 -0.25318,-1.45139 -0.41335,-2.9639 -0.43795,-4.79837 -1.1667,-9.35624 -2.22031,-13.67615 -1.52275,-6.24342 -3.70583,-12.58103 -6.61978,-18.97086 -1.39666,-3.33379 -2.50131,-4.899 -3.29639,-4.69839 -0.39754,0.10031 -0.62542,0.56762 -0.68196,1.40107 -0.44565,3.22678 -0.50112,7.6664 -0.14547,13.31793 0.33566,5.57671 1.01297,11.59195 2.02209,18.06281 1.02076,6.37529 2.20621,11.99023 3.50772,16.81107 2.46198,9.1193 4.82537,13.36841 7.09754,12.77432 1.13609,-0.29705 2.22601,-2.30083 3.33696,-6.01535 1.12331,-3.79828 1.99424,-8.46396 2.63785,-13.99853 z m -11.29526,-55.44174 c -0.1837,-1.62801 -0.36564,-3.25632 -0.54582,-4.88494 -1.29281,-10.848476 -2.15566,-19.677648 -2.6355,-26.389547 -0.49839,-6.8046 -0.70454,-12.571736 -0.63424,-17.301279 0.0939,-4.815098 0.47603,-8.349795 1.12258,-10.597783 0.99411,-3.861803 3.79092,-6.284492 8.36919,-7.182233 2.01319,-0.394762 3.54364,-0.481969 4.58139,-0.273591 1.08067,0.20067 2.0082,0.75584 2.78051,1.663164 0.12648,11.906572 0.45219,21.086658 0.80723,26.984021 0.38501,5.896001 1.1325,14.019373 2.27625,24.29969 1.93437,16.731258 4.33758,31.829568 6.98844,45.103398 1.75777,8.80184 3.89543,17.87357 6.365,27.26284 2.49529,9.33591 5.51608,19.58608 9.02492,30.99579 -1.06812,3.19431 -2.12082,5.94862 -3.17805,8.26885 -1.02709,2.31371 -2.05765,4.18963 -3.10829,5.63085 -1.02094,1.43468 -2.00615,2.25911 -2.9742,2.47361 -1.70077,0.37686 -3.39847,-1.55367 -5.13117,-5.797 -1.43792,-3.50461 -2.50411,-6.2963 -3.19534,-8.42506 -0.72623,-2.25872 -2.44595,-8.20798 -5.3143,-18.19788 -1.69084,11.83054 -3.40881,21.29305 -5.39565,28.48742 -1.97459,7.09854 -3.88048,10.94163 -5.97811,11.54974 -2.41373,0.69974 -5.14957,-1.29364 -8.30615,-5.97151 -3.14161,-4.74898 -6.0543,-11.22781 -8.61003,-19.39533 -2.29543,-7.33569 -4.2264,-15.70099 -5.65076,-25.05006 -1.41751,-9.44965 -2.15122,-18.76368 -2.11761,-27.96061 0.0218,-6.04684 0.39727,-11.23475 1.10177,-15.55821 0.71859,-4.40996 1.80182,-8.58007 3.25718,-12.50608 2.67717,-6.96584 5.59287,-10.81492 8.51131,-11.53254 1.4218,-0.34962 3.98082,1.06988 7.58945,4.30428 z m 62.66561,-21.50642 c 5.7744,-0.604949 8.7747,0.561027 9.0177,3.316533 0.2791,3.16466 -0.8537,4.971814 -3.374,5.451595 -3.044,0.689982 -5.7291,2.808322 -7.9953,6.338272 -2.2674,3.53201 -4.06268,8.22336 -5.36586,14.07065 -1.26714,5.845 -1.95303,12.33562 -2.09017,19.48768 -0.10203,7.14773 0.42337,14.60088 1.50766,22.38796 1.19127,8.5554 3.00717,15.38286 5.33487,20.42211 2.3239,4.97514 4.7306,7.30477 7.3099,6.99867 2.3906,-0.28371 4.1261,-3.58743 5.3207,-9.9363 1.1925,-6.33748 1.4491,-13.63841 0.6487,-21.84501 -0.6553,-6.71854 -1.8762,-12.934 -3.7363,-18.65329 -1.8327,-5.80119 -4.1931,-10.57726 -7.1122,-14.32539 -1.2559,-1.69684 -1.9363,-2.93218 -2.0282,-3.72248 -0.1279,-1.101 0.4207,-2.88954 1.6757,-5.34392 1.423,-2.63517 3.1182,-4.89198 5.0822,-6.76439 1.9635,-1.8719 3.6955,-2.87001 5.1604,-3.00118 1.6914,-0.15145 3.3741,0.6627 5.0225,2.44183 1.6804,1.6978 3.2215,4.24726 4.6153,7.64927 1.3886,3.32409 2.5148,7.22169 3.393,11.6996 0.3888,1.88063 0.7223,3.823 1.0025,5.82762 0.3746,2.68007 0.6537,5.46935 0.8422,8.36987 0.2036,3.13136 0.3093,6.25811 0.3227,9.37983 0,0 0,0 0,0 0.023,5.24864 -0.2151,10.48372 -0.6866,15.70524 -0.7566,8.23934 -1.9622,14.99042 -3.6035,20.21131 -2.1345,6.61965 -4.7969,12.16406 -7.9855,16.63977 -3.1701,4.39893 -6.2731,6.80135 -9.4716,7.21307 -3.1075,0.39999 -6.3778,-0.58372 -9.90718,-2.93817 -3.4958,-2.35665 -6.56678,-5.67475 -9.20097,-9.97506 -3.51472,-5.81278 -6.41106,-14.50034 -8.46465,-25.95852 -1.62438,-9.06339 -2.31658,-18.29723 -1.90305,-27.7129 0.41377,-9.42091 1.78813,-18.09439 4.20062,-26.02667 2.43583,-8.01267 5.63539,-14.44963 9.53494,-19.287698 3.92503,-4.918971 8.29175,-7.633615 12.93349,-8.119902 z m 46.0065,122.11438 c 1.7533,-0.27888 3.3019,-2.56668 4.7074,-6.86945 1.4341,-4.37986 2.1712,-9.10969 2.1388,-14.18781 -0.022,-3.49447 -0.4956,-6.26574 -1.4427,-8.32307 -1.0122,-2.44762 -3.2748,-4.85356 -6.8362,-7.14726 -5.2473,-3.52258 -8.8319,-7.44067 -10.6441,-11.88881 -1.6676,-3.57229 -2.6629,-7.89812 -2.9264,-12.96785 -0.4735,-9.1127 0.473,-18.31248 3.0893,-27.56154 2.6542,-9.25618 6.3802,-16.84526 11.1954,-22.74247 4.8081,-5.969742 9.876,-8.935963 14.9575,-8.892661 2.4634,0.02099 4.7611,1.248145 6.8504,3.674614 2.0906,2.427983 3.6907,5.647517 4.8066,9.653917 1.1185,3.92781 1.5769,8.19058 1.4181,12.79305 -0.1562,4.52357 -0.9769,9.17706 -2.408,13.97861 -1.4301,4.79809 -3.1384,8.80508 -5.117,12.01631 -1.9436,3.13498 -3.7313,4.69607 -5.4182,4.67936 -0.9637,-0.01 -1.8029,-0.49126 -2.5236,-1.44712 -0.6861,-0.95556 -1.0309,-1.98797 -1.0282,-3.09926 0,-1.10952 0.1455,-2.73977 0.4332,-4.88024 0.7959,-6.8329 1.2309,-12.76419 1.2599,-17.85362 0.028,-5.00145 -0.6366,-9.72686 -2.051,-14.17574 -1.8342,2.69227 -3.0118,4.84966 -3.5561,6.43588 -1.3858,3.50159 -2.4239,7.47788 -3.1301,11.93291 -0.7767,4.53207 -1.1201,8.82743 -1.0629,12.87323 0.04,2.85574 0.3537,5.15606 0.9294,6.89374 0.6099,1.65931 1.557,3.07748 2.8355,4.25944 1.3154,1.18401 3.2683,2.48155 5.8524,3.92648 4.3096,2.48312 7.2869,4.94216 8.9713,7.28193 0.3877,0.56372 0.9814,1.7338 1.7632,3.50159 1.174,3.29469 1.6536,7.51188 1.4838,12.67282 -0.1802,5.47569 -1.06,11.00188 -2.5625,16.598 -1.5014,5.5206 -3.6879,11.21118 -6.4726,17.12926 -2.9696,6.38812 -5.7647,10.98098 -8.4991,13.77681 -2.7345,2.79587 -5.7066,4.23138 -8.9964,4.3279 -3.1726,0.0931 -5.7362,-1.54087 -7.7572,-4.94008 -1.9866,-3.39131 -3.1886,-8.10718 -3.5204,-14.12349 -0.2359,-4.27869 0.1547,-8.63611 1.2326,-13.06184 1.0745,-4.50721 2.5409,-8.18844 4.4006,-11.04386 1.8901,-2.85465 3.8257,-4.30685 5.7489,-4.35662 1.4445,-0.0374 2.1807,0.74377 2.214,2.32999 0.017,0.79527 -0.1637,2.10549 -0.5341,3.94147 -1.1077,5.5782 -1.565,10.72208 -1.4406,15.39866 0.089,3.33193 0.6452,6.49391 1.6391,9.48682 z m 90.0964,-50.81674 1.153,-6.80901 c -2.3317,3.2282 -3.8915,4.7845 -4.7341,4.64877 -0.4718,-0.076 -0.6201,-0.66218 -0.4449,-1.75961 0.075,-0.46915 0.3333,-1.43515 0.7755,-2.89057 1.4689,-4.58939 2.5744,-9.07116 3.2879,-13.46018 1.0312,-6.34356 1.4907,-13.03083 1.3012,-20.05128 0.015,-3.61455 -0.3903,-5.48655 -1.199,-5.61181 -0.4042,-0.0626 -0.7957,0.27884 -1.1725,1.02426 -1.6671,2.79749 -3.4494,6.86375 -5.3283,12.2058 -1.8681,5.26528 -3.5949,11.0677 -5.1955,17.41862 -1.5526,6.26798 -2.6572,11.89915 -3.3437,16.84591 -1.2985,9.35683 -0.7787,14.19293 1.5559,14.53464 1.1673,0.17085 2.9607,-1.24758 5.4404,-4.23381 2.5239,-3.0586 5.1511,-7.01517 7.9041,-11.86173 z m 11.1824,-55.46595 c 0.4638,-1.57126 0.9293,-3.14214 1.3964,-4.71264 3.0269,-10.497871 5.6598,-18.967514 7.8217,-25.339553 2.1806,-6.464072 4.2247,-11.859402 6.1188,-16.191589 1.9488,-4.401936 3.6642,-7.512546 5.1232,-9.335005 2.4002,-3.176006 5.8878,-4.328504 10.4132,-3.391292 1.9901,0.412154 3.4209,0.921149 4.2883,1.513067 0.9095,0.601284 1.5426,1.47045 1.8984,2.604745 -4.4721,11.036106 -7.7137,19.622229 -9.6657,25.201546 -1.9232,5.586782 -4.3748,13.366112 -7.2996,23.288151 -4.6934,16.17744 -8.3301,31.02342 -11.0321,44.28923 -1.7914,8.7949 -3.3373,17.98703 -4.6969,27.59997 -1.3148,9.57096 -2.497,20.19855 -3.6683,32.07631 -2.2351,2.52881 -4.2868,4.65732 -6.1749,6.38327 -1.8576,1.73172 -3.5492,3.05811 -5.0904,3.97576 -1.5109,0.92322 -2.7511,1.29783 -3.7368,1.11726 -1.7316,-0.31724 -2.5577,-2.75867 -2.5092,-7.34311 0.034,-3.78848 0.1352,-6.77673 0.3258,-9.00642 0.1913,-2.16462 0.8284,-7.58343 1.9051,-16.51571 0,0 0,0 0,0 0.01,-0.0625 0.272,-2.25421 0.2796,-2.31675 -6.1848,10.23503 -11.4884,18.27579 -16.1582,24.11793 -4.6215,5.75946 -7.9087,8.54641 -10.0974,8.28175 -2.5185,-0.30454 -4.2735,-3.21392 -5.3548,-8.75731 -1.0396,-5.60379 -1.1794,-12.70545 -0.3227,-21.22193 0.7694,-7.649 2.2817,-16.09946 4.6444,-25.25831 2.4083,-9.24799 5.3894,-18.10381 9.0236,-26.55266 2.3891,-5.55518 4.7641,-10.18231 7.1014,-13.88582 2.3839,-3.77761 5.0071,-7.19265 7.8743,-10.23867 5.1744,-5.36745 9.3456,-7.775893 12.302,-7.300288 1.1421,0.183738 2.5056,1.670288 4.0482,4.463508 0,0 0,0 0,0 0.4025,0.72904 0.8172,1.54736 1.2426,2.45456 z m 28.9306,79.86408 c 2.0976,-1.98977 3.8646,-4.05917 5.2884,-6.22173 3.0685,-4.50572 6.0095,-9.83322 8.7874,-15.97274 1.9528,-3.98237 3.9023,-8.50866 5.8332,-13.56763 1.9328,-5.06429 3.5546,-9.8366 4.8501,-14.34025 1.207,-4.19569 1.3991,-6.4124 0.5758,-6.64714 -1.1457,-0.32663 -4.4541,4.55282 -9.7089,14.71774 -3.1404,6.13513 -5.9863,12.35726 -8.5641,18.6523 -2.5206,6.21922 -4.3835,11.69877 -5.6187,16.37124 -0.4269,1.61503 -0.9039,3.94476 -1.4432,7.00821 z m -0.8817,3.70811 c -0.8742,4.69566 -0.2751,7.31626 1.8072,7.88702 2.3308,0.63889 6.2644,-1.88779 12.038,-7.46385 3.3604,-3.22734 5.4623,-4.70038 6.2279,-4.46565 0.9569,0.29343 1.6627,1.17731 2.1079,2.64746 0.4452,1.47024 0.459,2.84894 0.053,4.13546 -0.4311,1.36428 -1.4482,2.99473 -3.0379,4.91127 -2.903,3.50006 -5.99,6.86995 -9.2458,10.12208 -3.2343,3.17723 -6.1581,5.79696 -8.8066,7.85197 -2.6258,1.9778 -5.0807,3.48125 -7.3846,4.50455 -2.2834,0.94671 -4.1479,1.23827 -5.6227,0.85937 -3.6789,-0.94515 -5.9581,-4.39062 -6.9345,-10.41059 -0.9549,-6.07678 -0.4568,-13.76766 1.6287,-22.96432 1.5948,-7.03215 4.0182,-14.85261 7.3533,-23.3573 3.3926,-8.58972 7.1707,-16.46083 11.3929,-23.60928 4.9614,-8.35872 10.3245,-14.98613 16.0984,-19.87176 7.076,-5.84935 13.1684,-8.01508 17.9592,-6.60392 3.4699,1.02209 5.483,4.13357 5.9876,9.27781 0.566,5.09293 -0.4388,11.54225 -2.939,19.42025 -1.946,6.13198 -4.723,12.27916 -8.2525,18.4978 -3.4936,6.22513 -7.5387,11.99795 -12.0641,17.35563 -3.7464,4.51603 -7.0506,7.93636 -9.9648,10.24677 -2.8818,2.31897 -5.0664,3.28253 -6.6098,2.86514 -0.6929,-0.18739 -1.288,-0.79891 -1.7913,-1.83591 z m 115.8527,14.96355 c 1.1574,-1.40361 2.3181,-2.80493 3.4822,-4.20394 27.2114,-32.74973 48.1257,-53.57027 57.9937,-61.84492 1.5011,-1.13476 2.7171,-1.97958 3.6377,-2.53505 0.9626,-0.624 1.9195,-1.11142 2.8704,-1.46204 0.9866,-0.32866 2.1373,-0.55663 3.4523,-0.67977 3.8771,-0.5033 7.8987,0.55082 11.985,3.18614 2.1141,1.36345 3.2164,2.56431 3.3136,3.57804 0.1331,1.03865 -0.5686,2.71313 -2.1015,5.03115 -1.1825,1.78811 -2.4863,3.6839 -3.9135,5.69096 -8.1084,11.66767 -13.9224,20.20186 -17.1981,25.16841 -8.3805,12.70618 -15.9304,25.07501 -22.7016,36.94425 -3.7121,6.68557 -7.275,13.60386 -10.7393,20.74855 -0.8424,1.86253 -1.6168,3.60761 -2.3227,5.2365 -1.7409,4.01905 -3.063,7.32777 -3.9543,9.93816 -1.3182,4.11238 -2.1978,7.16103 -2.6135,9.20398 -0.6208,2.66309 -1.3372,4.54837 -2.1109,5.65014 -1.4188,2.02037 -4.0033,4.25992 -7.7257,6.80123 -3.0894,2.05699 -5.6547,3.42006 -7.7216,4.07295 -2.0177,0.6446 -3.5585,0.61445 -4.6448,-0.10538 -3.0878,-2.0461 -3.5986,-7.4105 -1.774,-16.27837 0.8228,-4.34651 2.102,-8.92005 3.858,-13.70215 1.8221,-4.82739 4.4226,-10.55435 7.7957,-17.12897 3.4071,-6.62926 7.9883,-14.9489 13.6934,-24.82628 5.9263,-10.36872 9.8126,-17.20911 10.3775,-18.20738 -0.064,-0.0382 -0.1278,-0.0763 -0.1917,-0.11442 -6.8734,6.98547 -12.6654,13.07588 -17.1169,17.83009 -4.4739,4.77793 -8.2186,8.8795 -11.0656,12.04037 -2.8333,3.19496 -6.2647,7.10909 -10.1516,11.63207 -12.4327,14.50738 -19.7588,23.41683 -22.5402,26.33794 -0.1287,0.11023 -0.4061,0.36834 -0.8288,0.77144 -0.4234,0.40355 -0.7763,0.70976 -1.0597,0.91839 -1.0531,0.87715 -2.0383,1.47718 -2.9571,1.7994 -0.8554,0.26616 -1.4807,0.29644 -1.8795,0.0877 -1.1166,-0.58445 -1.396,-3.05373 -0.9029,-7.43661 0.5558,-4.43496 1.7714,-9.87611 3.6325,-16.30575 2.0111,-6.80247 4.2182,-13.63753 6.6497,-20.49026 2.4934,-6.90109 5.6122,-14.98419 9.3325,-24.19823 3.7823,-9.25982 8.5669,-20.52774 14.2996,-33.69271 -0.068,-0.0328 -0.1367,-0.0656 -0.205,-0.0984 -3.2208,4.14333 -5.7997,7.51515 -7.3541,9.55505 -1.5622,2.05019 -4.1803,5.50896 -7.4551,9.91663 -2.9773,4.00703 -5.5975,7.58817 -5.7704,7.82346 -4.3524,5.94544 -8.7495,11.96907 -13.1771,18.0699 -4.4903,6.1873 -7.7693,10.71611 -10.275,14.06106 -2.4121,3.27326 -4.8789,6.48295 -7.3935,9.63105 -1.1729,1.49272 -2.9578,3.50753 -5.3717,6.11213 -3.4477,3.35819 -6.6356,5.8069 -9.5847,7.33549 -1.8407,0.91768 -3.4453,1.41009 -4.827,1.47113 -0.8098,0.0372 -1.5426,-0.0738 -2.2007,-0.33435 -0.678,-0.26842 -1.097,-0.94457 -1.2615,-2.03154 -0.1645,-1.08646 0.024,-2.33393 0.5696,-3.73944 0.488,-1.25605 1.5227,-2.77453 3.1145,-4.53617 1.0148,-1.23148 3.1709,-4.11907 6.8863,-9.05544 0.5853,-0.79689 1.1719,-1.59301 1.7599,-2.38837 1.6067,-2.17185 3.2235,-4.3382 4.8504,-6.49892 4.3901,-5.69091 10.4638,-14.26416 20.7766,-28.36239 2.1751,-2.95595 4.3661,-5.90293 6.5729,-8.84073 14.9686,-20.13353 27.7854,-35.99246 33.0917,-42.59761 6.1139,-7.64109 9.4951,-11.98187 10.1596,-13.39681 0.7084,-1.50822 0.9496,-3.45902 0.7023,-5.85105 -0.221,-1.7675 -0.104,-3.15511 0.363,-4.16446 0.7334,-1.58519 2.5088,-2.56124 5.3443,-2.89388 2.8693,-0.40447 5.6034,0.022 8.1729,1.27542 5.1845,2.52905 7.7528,6.56985 7.6835,11.97693 -0.048,3.37082 -1.556,9.29283 -4.5754,17.75092 -2.9816,8.38525 -7.8793,20.29833 -14.7666,35.69631 -0.3808,0.87531 -0.6874,1.56867 -0.9156,2.07556 -0.1914,0.43761 -0.3633,0.84089 -0.5175,1.20838 -0.1543,0.36761 -0.3804,0.83164 -0.6794,1.39198 -0.8491,2.06326 -1.4467,3.41474 -1.7822,4.04257 -4.163,9.43215 -6.7775,15.45895 -7.8825,18.33641 -1.0524,2.76811 -1.788,5.30483 -2.2106,7.60365 0,-4e-5 -10e-5,-8e-5 -2e-4,-1.1e-4 z m 44.5141,59.13539 c 2.6846,-1.01927 5.1099,-2.23154 7.2659,-3.6571 4.5815,-2.92938 9.4035,-6.64802 14.41,-11.15448 3.3849,-2.86374 6.9965,-6.22277 10.8073,-10.06916 3.8165,-3.85236 7.2323,-7.55717 10.2407,-11.15284 2.8021,-3.34904 3.8696,-5.30396 3.2002,-5.86106 -0.9315,-0.77515 -5.9582,2.33027 -14.8529,9.53872 -5.3389,4.36255 -10.4308,8.94052 -15.2962,13.69616 -4.7816,4.70717 -8.667,9.00913 -11.6561,12.80566 -1.0348,1.31432 -2.3991,3.25966 -4.1189,5.8541 z m -2.2865,3.05161 c -2.6787,3.95584 -3.2063,6.56929 -1.5894,7.87077 1.8099,1.45681 6.3216,0.62724 13.7641,-2.20693 4.3242,-1.63316 6.8128,-2.14229 7.3953,-1.63084 0.7281,0.63931 0.9845,1.71523 0.7589,3.21639 -0.2255,1.50117 -0.7979,2.74889 -1.7019,3.75028 -0.959,1.06228 -2.5462,2.13479 -4.7556,3.25116 -4.0317,2.0372 -8.1635,3.90787 -12.3743,5.62644 -4.1647,1.66069 -7.806,2.95106 -10.974,3.84243 -3.1144,0.82936 -5.8773,1.30113 -8.3128,1.39526 -2.3858,0.032 -4.137,-0.37583 -5.2791,-1.25565 -2.8464,-2.19281 -3.4814,-6.17185 -1.9617,-12.05073 1.5609,-5.92102 5.0302,-12.80743 10.5233,-20.47673 4.1987,-5.86222 9.4623,-12.14596 15.8332,-18.69203 6.4581,-6.60384 13.005,-12.39023 19.6982,-17.31262 7.8498,-5.74684 15.4238,-9.71103 22.7271,-11.85249 8.8964,-2.49741 15.4682,-1.92383 19.3856,1.42245 2.8376,2.42388 3.4644,6.15866 1.8398,11.09026 -1.5488,4.91774 -5.126,10.36729 -10.6779,16.49408 -4.3193,4.76657 -9.4059,9.19212 -15.1852,13.39816 -5.7453,4.22345 -11.7941,7.84153 -18.0595,10.92717 -5.2253,2.63016 -9.5787,4.46392 -13.1267,5.45126 -3.5214,1.00708 -5.8594,1.05967 -7.0685,0.095 -0.5429,-0.43311 -0.8269,-1.2158 -0.8589,-2.35313 z m 77.9881,-3.4848 c 3.1491,-2.01403 6.3367,-4.08795 9.556,-6.22116 4.6083,-3.05199 9.296,-6.23365 14.0391,-9.54187 8.1653,-5.70614 14.1618,-10.13618 18.1553,-13.61288 1.0777,-0.93829 1.4721,-1.57338 1.1824,-1.90382 -0.4477,-0.5107 -3.2353,0.35656 -8.2953,2.69914 0,0 0,0 0,0 -0.1785,0.0829 -0.3598,0.16756 -0.5439,0.25412 -5.3421,2.48658 -10.5401,5.32662 -15.6121,8.48461 -11.0509,6.94884 -20.2166,13.17247 -27.1752,18.14501 -6.9268,4.98097 -12.6586,9.41647 -17.0992,13.10422 -4.4679,3.71045 -8.8604,7.66573 -13.2084,11.84551 -3.7113,3.56768 -6.2865,6.35276 -7.7032,8.30253 -1.401,1.97951 -1.7729,3.3149 -1.1088,4.02293 1.1415,1.2169 3.7869,1.27773 8.0184,0.29101 0.9902,-0.24 2.0228,-0.52601 3.0981,-0.85748 3.5778,-1.10838 7.6419,-2.72673 12.1909,-4.83096 4.4606,-1.99716 6.9806,-2.64273 7.4943,-2.03011 0.6636,0.79126 -0.5066,2.43006 -3.5027,4.91151 -6.5308,5.4091 -13.6341,9.88243 -21.0615,13.62109 -5.6049,2.82132 -10.7353,4.94993 -15.3411,6.35405 -1.5042,0.45415 -2.9577,0.83367 -4.3604,1.13796 -5.6376,1.20687 -9.3973,0.84501 -11.4772,-1.28684 -2.5524,-2.61608 -2.3277,-7.08867 0.557,-13.64666 2.8703,-6.52528 7.9154,-13.92969 15.279,-21.88628 6.0075,-6.49124 13.6779,-13.67492 23.0125,-21.17948 9.4134,-7.58195 19.4062,-14.6961 30.0482,-21.13935 10.7376,-6.48033 21.0684,-11.66686 31.0012,-15.54683 9.9285,-3.87824 18.3537,-5.90376 25.1276,-6.23659 0.9683,-0.0732 1.8844,-0.0742 2.7477,-0.003 2.9864,0.25527 5.3435,1.37748 7.0296,3.33966 1.6536,1.92446 2.1159,4.57758 1.3471,7.88923 -0.7087,3.26637 -2.5787,6.81829 -5.6109,10.65857 -3.0345,3.84307 -6.8335,7.52977 -11.3774,11.13687 -9.7531,7.74228 -20.1514,14.27086 -30.8788,19.93475 -10.671,5.67657 -20.6694,9.94836 -29.6884,12.81604 -2.5367,0.82594 -4.8075,1.48894 -6.8251,1.98014 -1.4411,0.34991 -2.7513,0.61178 -3.9336,0.78263 -2.8371,0.40996 -4.6423,0.20586 -5.4497,-0.66237 -0.7828,-0.84175 -0.4032,-1.99717 1.1558,-3.46774 0.8589,-0.81018 2.8134,-2.06157 5.8449,-3.68497 4.0405,-2.12781 9.7599,-5.52225 17.4688,-10.20007 0.7441,-0.47904 1.531,-0.97056 2.3603,-1.47356 0.8904,-0.55757 2.065,-1.3223 3.5387,-2.2993 z m 62.0526,34.4331 c 3.1135,5.8656 3.1874,9.51645 0.7128,10.69462 -2.8712,1.36697 -5.0223,0.77163 -6.509,-1.67073 -1.9054,-2.92107 -5.0313,-4.90174 -9.2776,-5.83204 -4.2511,-0.93137 -9.355,-0.85313 -15.2791,0.25163 -5.9057,1.13792 -12.1165,3.17768 -18.6701,6.04302 -3.3546,1.48611 -6.7077,3.1694 -10.0715,5.03298 0,0 0,0 0,0 0,0 0,0 0,0 -3.1873,1.76582 -6.38,3.69108 -9.5939,5.76315 -2.7112,1.74793 -5.1731,3.46788 -7.3822,5.13949 0,0 0,0 0,0 -3.7102,2.8074 -6.7404,5.50255 -9.0911,8.02401 -3.6902,3.98815 -5.0335,6.81639 -3.9716,8.64568 0.9842,1.69544 4.4864,1.62849 10.6786,0.0808 6.1408,-1.53485 13.0606,-4.07494 20.3753,-7.79324 6.0235,-3.06191 11.3775,-6.41152 16.0147,-10.24815 4.7216,-3.84064 8.2412,-7.8416 10.5289,-12.06772 1.0614,-1.84932 1.9135,-2.97868 2.607,-3.37471 0.9583,-0.54725 2.8447,-0.72346 5.634,-0.43134 3.0309,0.38782 5.8309,1.22938 8.3792,2.5311 2.5474,1.30123 4.1789,2.73155 4.8803,4.19382 0.8097,1.68793 0.6943,3.70907 -0.3705,5.9921 -0.9767,2.29091 -2.833,4.69276 -5.5794,7.17649 -2.6768,2.45612 -6.0047,4.77806 -9.99,7.01162 -3.8988,2.239 -8.2138,4.24561 -12.9472,6.10844 -7.8157,3.07584 -15.8426,5.51311 -23.8858,7.60074 -7.932,2.04779 -14.6535,3.44145 -19.8686,4.09918 -6.6551,0.79944 -12.4646,1.07211 -17.3163,0.68943 -4.8132,-0.40371 -7.7634,-1.45253 -9.0227,-3.52886 -0.5105,-0.84166 -0.8204,-1.82004 -0.9375,-2.94876 -0.1684,-1.56332 0.031,-3.40251 0.5759,-5.54913 0.9505,-3.66661 2.7899,-7.557 5.5938,-11.63114 3.7909,-5.44823 10.278,-11.96222 19.4926,-19.0326 7.2997,-5.60101 15.1564,-10.51759 23.7182,-14.43739 8.567,-3.92216 16.9669,-6.56023 25.2431,-7.73195 6.025,-0.85378 11.5276,-0.88945 16.4765,-0.12534 1.9192,0.29525 3.7529,0.71203 5.4978,1.24942 6.3375,1.91796 10.8619,5.37779 13.3554,10.0754 z"
       id="text14"
       style="font-size:96px;font-family:Forte;-inkscape-font-specification:Forte;fill:#ffffff;stroke:#010101;stroke-width:3.918;stroke-linecap:square"
       aria-label="Mercados de Melo"
       inkscape:path-effect="#path-effect14"
       inkscape:original-d="m 666.24292,141.34942 0.9375,-2.10937 c 7.375,-16.65625 12.71875,-27.48438 16.03125,-32.48438 0.53125,-0.6875 0.98438,-1.21875 1.35938,-1.59375 0.375,-0.40625 0.79687,-0.76562 1.26562,-1.07812 0.5,-0.3125 1.14063,-0.625 1.92188,-0.9375 2.25,-0.96875 5.15625,-1.45313 8.71875,-1.45313 1.84375,0 3,0.15625 3.46875,0.46875 0.5,0.3125 0.75,1.01563 0.75,2.10938 0,0.84375 -0.0312,1.75 -0.0937,2.71875 -0.25,5.625 -0.375,9.625 -0.375,12 0,6 0.40625,11.6875 1.21875,17.0625 0.53125,3 1.3125,6.04687 2.34375,9.14062 1.09375,2.75 2.14062,4.85938 3.14062,6.32813 1.1875,1.625 2.1875,2.8125 3,3.5625 1,1 1.5,1.76562 1.5,2.29687 0,0.96875 -0.82812,2.28125 -2.48437,3.9375 -2.78125,2.6875 -5.5625,4.03125 -8.34375,4.03125 -3.90625,0 -7.45313,-1.67187 -10.64063,-5.01562 -1.625,-1.625 -2.92187,-3.42188 -3.89062,-5.39063 -0.9375,-2 -1.64063,-4.45312 -2.10938,-7.35937 -0.46875,-2.9375 -0.78125,-6.65625 -0.9375,-11.15625 -0.21875,-4.875 -0.34375,-7.625 -0.375,-8.25 h -0.1875 c -1.96875,3.78125 -3.60937,6.9375 -4.92187,9.46875 -1.3125,2.53125 -2.39063,4.625 -3.23438,6.28125 -0.8125,1.65625 -1.78125,3.64062 -2.90625,5.95312 -3.5625,7.375 -5.89062,11.82813 -6.98437,13.35938 -0.0625,0.0625 -0.18747,0.20309 -0.375,0.42187 -0.1875,0.21875 -0.35938,0.39063 -0.51563,0.51563 -0.53125,0.5 -1.14062,0.89062 -1.82812,1.17187 -0.65625,0.25 -1.21875,0.375 -1.6875,0.375 -1.3125,0 -2.76563,-0.8125 -4.35938,-2.4375 -1.5625,-1.65625 -2.9375,-3.78125 -4.125,-6.375 -1.21875,-2.75 -2.21875,-5.54687 -3,-8.39062 -0.75,-2.875 -1.42187,-6.26563 -2.01562,-10.17188 -0.5625,-3.9375 -1.0625,-8.73437 -1.5,-14.39062 h -0.1875 c -0.9375,2.0625 -1.64063,3.60937 -2.10938,4.64062 -0.46875,1.03125 -1.1875,2.625 -2.15625,4.78125 -0.96875,2.15625 -1.53125,3.40625 -1.6875,3.75 -1.28125,2.84375 -2.625,5.71875 -4.03125,8.625 -1.40625,2.90625 -2.54687,5.14063 -3.42187,6.70313 -0.84375,1.5625 -1.78125,3.10937 -2.8125,4.64062 -0.46875,0.71875 -1.29688,1.73438 -2.48438,3.04688 -1.84375,1.75 -3.85937,3.125 -6.04687,4.125 -2.1875,0.96875 -4.26563,1.45312 -6.23438,1.45312 -0.75,0 -1.40625,-0.1875 -1.96875,-0.5625 -0.5625,-0.375 -0.84375,-0.85937 -0.84375,-1.45312 0,-0.53125 0.42188,-1.23438 1.26563,-2.10938 0.46875,-0.5625 1.48437,-2 3.04687,-4.3125 l 2.71875,-4.21875 c 1.6875,-2.5 4.23438,-6.98437 7.64063,-13.45312 l 6.61364,2.3267 c 5.25,-10.0625 4.43323,-23.48295 6.27698,-27.17045 1.84375,-3.71875 2.76563,-5.875 2.76563,-6.46875 0,-0.65625 -0.46875,-1.39063 -1.40625,-2.20313 -0.71875,-0.59375 -1.07813,-1.10937 -1.07813,-1.54687 0,-0.6875 0.90625,-1.32813 2.71875,-1.92188 1.8125,-0.625 3.78125,-0.9375 5.90625,-0.9375 4.28125,0 7.32813,0.95313 9.14063,2.85938 1.125,1.1875 2.17187,3.53125 3.14062,7.03125 0.96875,3.46875 1.9375,8.51562 2.90625,15.14062 0.0625,0.375 0.10934,0.67188 0.14063,0.89063 0.0313,0.1875 0.0625,0.35937 0.0937,0.51562 0.0313,0.15625 0.0469,0.35938 0.0469,0.60938 0.1875,0.875 0.28125,1.45312 0.28125,1.73437 0.65625,4.03125 1.15625,6.64063 1.5,7.82813 0.34375,1.15625 0.84375,2.17187 1.5,3.04687 z m 65.0625,9.89063 c 1.4375,-0.96875 2.53125,-1.9375 3.28125,-2.90625 1.65625,-2.03125 2.9375,-4.35938 3.84375,-6.98438 0.71875,-1.71875 1.28125,-3.64062 1.6875,-5.76562 0.40625,-2.125 0.60938,-4.10938 0.60938,-5.95313 0,-1.71875 -0.35938,-2.57812 -1.07813,-2.57812 -1,0 -2.53125,2.20312 -4.59375,6.60937 -1.21875,2.65625 -2.21875,5.3125 -3,7.96875 -0.75,2.625 -1.125,4.89063 -1.125,6.79688 0,0.65625 0.125,1.59375 0.375,2.8125 z m 0.0937,1.5 c 0.34375,1.875 1.5625,2.8125 3.65625,2.8125 2.34375,0 5.39063,-1.375 9.14063,-4.125 2.1875,-1.59375 3.65625,-2.39063 4.40625,-2.39063 0.9375,0 1.8125,0.25 2.625,0.75 0.8125,0.5 1.21875,1.01563 1.21875,1.54688 0,0.5625 -0.45313,1.29687 -1.35938,2.20312 -1.65625,1.65625 -3.5625,3.28125 -5.71875,4.875 -2.15625,1.5625 -4.23437,2.875 -6.23437,3.9375 -2,1.03125 -4,1.85938 -6,2.48438 -2,0.59375 -3.78125,0.89062 -5.34375,0.89062 -3.90625,0 -7.03125,-1.10937 -9.375,-3.32812 -2.34375,-2.25 -3.51563,-5.23438 -3.51563,-8.95313 0,-2.84375 0.60938,-6.04687 1.82813,-9.60937 1.25,-3.59375 2.92187,-6.95313 5.01562,-10.07813 2.46875,-3.65625 5.5,-6.70312 9.09375,-9.14062 4.4375,-2.9375 8.6875,-4.40625 12.75,-4.40625 2.9375,0 5.23438,0.9375 6.89063,2.8125 1.6875,1.84375 2.53125,4.39062 2.53125,7.64062 0,2.53125 -0.67188,5.17188 -2.01563,7.92188 -1.3125,2.75 -3.26562,5.39062 -5.85937,7.92187 -2.125,2.125 -4.21875,3.78125 -6.28125,4.96875 -2.03125,1.1875 -3.8125,1.78125 -5.34375,1.78125 -0.6875,0 -1.39063,-0.17187 -2.10938,-0.51562 z m 40.59375,-1.21875 -0.1875,0.9375 c 0,0.53125 -0.0625,1.29687 -0.1875,2.29687 -0.125,1.53125 -0.29687,2.78125 -0.51562,3.75 -0.21875,0.96875 -0.54688,1.78125 -0.98438,2.4375 -0.4375,0.625 -1.03125,1.29688 -1.78125,2.01563 -2.28125,2.09375 -4.57812,3.14062 -6.89062,3.14062 -1.875,0 -3.26563,-0.6875 -4.17188,-2.0625 -0.875,-1.375 -1.3125,-3.59375 -1.3125,-6.65625 0,-2.4375 0.26563,-5.4375 0.79688,-9 0.5625,-3.59375 1.23437,-6.8125 2.01562,-9.65625 l 0.375,-1.21875 c 0,-0.1875 0.0937,-0.57812 0.28125,-1.17187 1.15625,-4.25 2.21875,-7.39063 3.1875,-9.42188 0.96875,-2.0625 2.14063,-3.71875 3.51563,-4.96875 1.21875,-0.96875 2.59375,-1.45312 4.125,-1.45312 2.21875,0 3.5625,1.34375 4.03125,4.03125 0.4375,-0.375 0.85937,-0.8125 1.26562,-1.3125 0.90625,-1.09375 1.60938,-1.8125 2.10938,-2.15625 0.5,-0.375 1.07812,-0.5625 1.73437,-0.5625 2.6875,0 4.03125,2.65625 4.03125,7.96875 0,2.90625 -0.3125,5.71875 -0.9375,8.4375 -0.625,2.71875 -1.42187,4.9375 -2.39062,6.65625 -0.9375,1.71875 -1.875,2.57812 -2.8125,2.57812 -1.03125,0 -1.54688,-1.95312 -1.54688,-5.85937 0,-2.0625 -0.125,-3.67188 -0.375,-4.82813 -0.21875,-1.1875 -0.57812,-2.10937 -1.07812,-2.76562 -0.9375,1.75 -1.54688,5.75 -1.82813,12 -0.21875,3.625 -0.375,5.90625 -0.46875,6.84375 z m 40.92188,-30.9375 c 2.375,0.0937 4.26562,0.78125 5.67187,2.0625 1.40625,1.28125 2.10938,3 2.10938,5.15625 0,1.875 -0.54688,3.76562 -1.64063,5.67187 -1.0625,1.90625 -2.42187,3.46875 -4.07812,4.6875 -1.625,1.21875 -3.26563,1.82813 -4.92188,1.82813 -0.96875,0 -1.45312,-0.34375 -1.45312,-1.03125 0,-0.25 0.1875,-0.79688 0.5625,-1.64063 1.21875,-2.0625 1.82812,-4.4375 1.82812,-7.125 0,-1.34375 -0.15625,-2.01562 -0.46875,-2.01562 -0.4375,0 -1.0625,0.5625 -1.875,1.6875 -0.8125,1.125 -1.5,2.45312 -2.0625,3.98437 -0.96875,2.40625 -1.78125,4.96875 -2.4375,7.6875 -0.625,2.71875 -0.9375,5.01563 -0.9375,6.89063 0,2.125 0.3125,3.79687 0.9375,5.01562 0.65625,1.21875 1.5625,1.82813 2.71875,1.82813 1.0625,0 2.48438,-0.5625 4.26563,-1.6875 1.78125,-1.125 3.46875,-2.51563 5.0625,-4.17188 0.65625,-0.84375 1.23437,-1.26562 1.73437,-1.26562 0.75,0 1.125,0.42187 1.125,1.26562 0,3.84375 -1.5,7.32813 -4.5,10.45313 -2.0625,2.0625 -4.4375,3.73437 -7.125,5.01562 -2.65625,1.25 -5.04687,1.875 -7.17187,1.875 -3.71875,0 -6.8125,-1.17187 -9.28125,-3.51562 -2.46875,-2.34375 -3.70313,-5.29688 -3.70313,-8.85938 0,-3.5625 0.78125,-7.29687 2.34375,-11.20312 1.59375,-3.9375 3.75,-7.67188 6.46875,-11.20313 2.75,-3.53125 5.85938,-6.48437 9.32813,-8.85937 2.5,-1.6875 4.9375,-2.53125 7.3125,-2.53125 z m 46.17187,20.85937 -0.89062,0.28125 c -2.25,0.625 -3.875,0.9375 -4.875,0.9375 -1.21875,0 -1.82813,-0.3125 -1.82813,-0.9375 0,-0.21875 0.25,-0.79687 0.75,-1.73437 1.75,-2.65625 2.625,-5.15625 2.625,-7.5 0,-1.34375 -0.23437,-2.5625 -0.70312,-3.65625 -0.46875,-1.125 -0.98438,-1.6875 -1.54688,-1.6875 -0.5,0 -1.26562,0.53125 -2.29687,1.59375 -2.90625,3.15625 -5.21875,6.39062 -6.9375,9.70312 -1.6875,3.3125 -2.53125,6.26563 -2.53125,8.85938 0,1.71875 0.34375,3.14062 1.03125,4.26562 0.71875,1.125 1.60937,1.6875 2.67187,1.6875 0.90625,0 2.59375,-0.96875 5.0625,-2.90625 2.5,-1.9375 5.29688,-4.5 8.39063,-7.6875 l 1.26562,-1.03125 z m -2.8125,10.73438 v 0.1875 l -0.1875,-0.1875 c -2.90625,3.40625 -5.57812,6.20312 -8.01562,8.39062 -2.40625,2.15625 -4.64063,3.78125 -6.70313,4.875 -2.03125,1.09375 -3.90625,1.64063 -5.625,1.64063 -3.5,0 -6.39062,-1.17188 -8.67187,-3.51563 -2.28125,-2.34375 -3.42188,-5.3125 -3.42188,-8.90625 0,-2.21875 0.5625,-4.84375 1.6875,-7.875 1.125,-3.03125 2.67188,-6 4.64063,-8.90625 3.28125,-4.75 7.40625,-8.78125 12.375,-12.09375 5.125,-3.40625 10.0625,-5.10937 14.8125,-5.10937 4,0 7.28125,0.82812 9.84375,2.48437 2.59375,1.625 3.89062,3.6875 3.89062,6.1875 0,1.84375 -0.64062,3.79688 -1.92187,5.85938 1.6875,0 2.75,0.1875 3.1875,0.5625 0.4375,0.34375 0.65625,1.17187 0.65625,2.48437 0,-0.125 -0.0781,0.51563 -0.23438,1.92188 -0.1875,3.09375 -0.28125,5.98437 -0.28125,8.67187 0,1.40625 0.0156,2.46875 0.0469,3.1875 0.0313,0.71875 0.0938,1.54688 0.1875,2.48438 0.0937,0.9375 0.1875,1.6875 0.28125,2.25 0.25,1.46875 0.65625,2.92187 1.21875,4.35937 -1.875,1.84375 -3.67188,3.20313 -5.39063,4.07813 -1.71875,0.84375 -3.46875,1.26562 -5.25,1.26562 -4.8125,0 -7.21875,-4.03125 -7.21875,-12.09375 0,-0.9375 0.0312,-1.67187 0.0937,-2.20312 z m 50.67188,-6.98438 v -2.71875 c -1.59375,1.40625 -2.78125,2.10938 -3.5625,2.10938 -0.4375,0 -0.65625,-0.21875 -0.65625,-0.65625 0,-0.1875 0.0937,-0.57813 0.28125,-1.17188 0.65625,-1.875 0.98437,-3.6875 0.98437,-5.4375 0,-2.53125 -0.54687,-5.15625 -1.64062,-7.875 -0.46875,-1.40625 -1.04688,-2.10937 -1.73438,-2.10937 -0.34375,0 -0.625,0.15625 -0.84375,0.46875 -1.03125,1.1875 -2.01562,2.875 -2.95312,5.0625 -0.9375,2.15625 -1.71875,4.51562 -2.34375,7.07812 -0.59375,2.53125 -0.89063,4.78125 -0.89063,6.75 0,3.71875 1.125,5.57813 3.375,5.57813 1.125,0 2.625,-0.65625 4.5,-1.96875 1.90625,-1.34375 3.73438,-3.04688 5.48438,-5.10938 z m 1.45312,-22.26562 0.46875,-1.92188 c 0.96875,-4.28125 1.84375,-7.73437 2.625,-10.35937 0.78125,-2.65625 1.57813,-4.89063 2.39063,-6.70313 0.84375,-1.84375 1.67187,-3.17187 2.48437,-3.984371 1.3125,-1.406253 3.67188,-2.10938 7.07813,-2.10938 1.5,0 2.60937,0.07813 3.32812,0.23438 0.75,0.156247 1.34375,0.437497 1.78125,0.84375 -1.5,4.656251 -2.54687,8.156251 -3.14062,10.500001 -0.5625,2.3125 -1.1875,5.5 -1.875,9.5625 -1.0625,6.625 -1.59375,12.60937 -1.59375,17.95312 0,3.53125 0.28125,7.20313 0.84375,11.01563 0.59375,3.78125 1.54687,8 2.85937,12.65625 -1.65625,1.15625 -3.25,2.14062 -4.78125,2.95312 -1.5,0.8125 -2.9375,1.45313 -4.3125,1.92188 -1.34375,0.46875 -2.53125,0.70312 -3.5625,0.70312 -1.8125,0 -3.09375,-0.89062 -3.84375,-2.67187 -0.625,-1.46875 -1.03125,-2.64063 -1.21875,-3.51563 -0.1875,-0.90625 -0.51562,-3.39062 -0.98437,-7.45312 -4.1875,4.375 -8.20313,7.82812 -12.04688,10.35937 -3.8125,2.5 -6.85937,3.75 -9.14062,3.75 -2.625,0 -4.78125,-1.0625 -6.46875,-3.1875 -1.65625,-2.15625 -2.48438,-4.92187 -2.48438,-8.29687 0,-3.03125 0.64063,-6.39063 1.92188,-10.07813 1.3125,-3.71875 3.10937,-7.3125 5.39062,-10.78125 1.5,-2.28125 3.03125,-4.20312 4.59375,-5.76562 1.59375,-1.59375 3.39063,-3.0625 5.39063,-4.40625 3.625,-2.375 6.65625,-3.5625 9.09375,-3.5625 1.1875,0 2.92187,0.78125 5.20312,2.34375 z m 53.10938,-4.26563 c 4.65625,0 6.98437,0.54688 6.98437,1.64063 0,1.25 -1.04687,1.92187 -3.14062,2.01562 -2.53125,0.15625 -4.89063,0.875 -7.07813,2.15625 -2.1875,1.28125 -4.14062,3.03125 -5.85937,5.25 -1.6875,2.21875 -3.01563,4.71875 -3.98438,7.5 -0.9375,2.78125 -1.40625,5.71875 -1.40625,8.8125 0,3.40625 0.79688,6.15625 2.39063,8.25 1.59375,2.0625 3.67187,3.09375 6.23437,3.09375 2.375,0 4.45313,-1.21875 6.23438,-3.65625 1.78125,-2.4375 2.67187,-5.28125 2.67187,-8.53125 0,-2.65625 -0.5625,-5.14062 -1.6875,-7.45312 -1.09375,-2.34375 -2.70312,-4.3125 -4.82812,-5.90625 -0.90625,-0.71875 -1.35938,-1.23438 -1.35938,-1.54688 0,-0.4375 0.64063,-1.10937 1.92188,-2.01562 1.4375,-0.96875 3.04687,-1.78125 4.82812,-2.4375 1.78125,-0.65625 3.28125,-0.98438 4.5,-0.98438 1.40625,0 2.73438,0.375 3.98438,1.125 1.28125,0.71875 2.40625,1.76563 3.375,3.14063 0.96875,1.34375 1.70312,2.90625 2.20312,4.6875 0.53125,1.75 0.79688,3.625 0.79688,5.625 0,3.3125 -0.625,6.59375 -1.875,9.84375 -1.25,3.21875 -2.89063,5.82812 -4.92188,7.82812 -2.625,2.53125 -5.79687,4.60938 -9.51562,6.23438 -3.6875,1.59375 -7.20313,2.39062 -10.54688,2.39062 -3.25,0 -6.48437,-0.5625 -9.70312,-1.6875 -3.1875,-1.125 -5.71875,-2.60937 -7.59375,-4.45312 -2.5,-2.5 -3.75,-6.04688 -3.75,-10.64063 0,-3.625 0.89062,-7.25 2.67187,-10.875 1.78125,-3.625 4.1875,-6.90625 7.21875,-9.84375 3.0625,-2.96875 6.42188,-5.29687 10.07813,-6.98437 3.6875,-1.71875 7.40625,-2.57813 11.15625,-2.57813 z m 34.73437,49.17188 c 1.84375,-0.0937 3.51563,-0.98438 5.01563,-2.67188 1.5313,-1.71875 2.2969,-3.57812 2.2969,-5.57812 0,-1.375 -0.4531,-2.46875 -1.3594,-3.28125 -0.9687,-0.96875 -3.14061,-1.92188 -6.51563,-2.85938 -4.96875,-1.4375 -8.20312,-3.04687 -9.70312,-4.82812 -1.40625,-1.4375 -2.10938,-3.15625 -2.10938,-5.15625 0,-3.59375 1.29688,-7.1875 3.89063,-10.78125 2.625,-3.59375 5.96875,-6.53125 10.03125,-8.8125 4.06255,-2.3125 8.15625,-3.46875 12.28125,-3.46875 2,0 3.875,0.46875 5.625,1.40625 1.75,0.9375 3.1406,2.1875 4.1719,3.75 1.0313,1.53125 1.5469,3.20312 1.5469,5.01562 0,1.78125 -0.5625,3.625 -1.6875,5.53125 -1.125,1.90625 -2.5469,3.5 -4.2657,4.78125 -1.6875,1.25 -3.2968,1.875 -4.8281,1.875 -0.875,0 -1.6406,-0.1875 -2.2969,-0.5625 -0.625,-0.375 -0.9375,-0.78125 -0.9375,-1.21875 0,-0.4375 0.125,-1.07812 0.375,-1.92187 0.6875,-2.6875 1.0313,-5.03125 1.0313,-7.03125 0,-1.96875 -0.5938,-3.82813 -1.7813,-5.57813 -1.5312,1.0625 -2.5312,1.90625 -3,2.53125 -1.1875,1.375 -2.1093,2.9375 -2.7656,4.6875 -0.7187,1.78125 -1.0781,3.46875 -1.0781,5.0625 0,1.125 0.25,2.03125 0.75,2.71875 0.5313,0.65625 1.375,1.21875 2.5312,1.6875 1.1875,0.46875 2.9688,0.98438 5.3438,1.54688 3.9687,0.96875 6.7656,1.90625 8.3906,2.8125 0.375,0.21875 0.9531,0.67187 1.7344,1.35937 1.1875,1.28125 1.7812,2.9375 1.7812,4.96875 0,2.15625 -0.6719,4.34375 -2.0156,6.5625 -1.3437,2.1875 -3.4219,4.45313 -6.2344,6.79688 -3,2.53125 -5.9844,4.34375 -8.9531,5.4375 -2.9688,1.09375 -6.25,1.64062 -9.84375,1.64062 -3.46875,0 -6.20313,-0.6875 -8.20313,-2.0625 -1.96875,-1.375 -2.95312,-3.25 -2.95312,-5.625 0,-1.6875 0.65625,-3.39062 1.96875,-5.10937 1.3125,-1.75 2.9375,-3.17188 4.875,-4.26563 1.96875,-1.09375 3.89062,-1.64062 5.76562,-1.64062 1.40625,0 2.10938,0.3125 2.10938,0.9375 0,0.3125 -0.20313,0.82812 -0.60938,1.54687 -1.21875,2.1875 -1.82812,4.20313 -1.82812,6.04688 0,1.3125 0.48437,2.5625 1.45312,3.75 z m 84.37493,-22.64063 v -2.71875 c -1.5937,1.40625 -2.7812,2.10938 -3.5625,2.10938 -0.4375,0 -0.6562,-0.21875 -0.6562,-0.65625 0,-0.1875 0.094,-0.57813 0.2812,-1.17188 0.6563,-1.875 0.9844,-3.6875 0.9844,-5.4375 0,-2.53125 -0.5469,-5.15625 -1.6406,-7.875 -0.4687,-1.40625 -1.0469,-2.10937 -1.7344,-2.10937 -0.3437,0 -0.625,0.15625 -0.8437,0.46875 -1.0313,1.1875 -2.0157,2.875 -2.9532,5.0625 -0.9375,2.15625 -1.7187,4.51562 -2.3437,7.07812 -0.5937,2.53125 -0.8906,4.78125 -0.8906,6.75 0,3.71875 1.125,5.57813 3.375,5.57813 1.125,0 2.625,-0.65625 4.5,-1.96875 1.9062,-1.34375 3.7343,-3.04688 5.4843,-5.10938 z m 1.4532,-22.26562 0.4687,-1.92188 c 0.9687,-4.28125 1.8437,-7.73437 2.625,-10.35937 0.7813,-2.65625 1.5781,-4.89063 2.3906,-6.70313 0.8438,-1.84375 1.6719,-3.17187 2.4844,-3.984371 1.3125,-1.406253 3.6719,-2.10938 7.0781,-2.10938 1.5,0 2.6094,0.07813 3.3282,0.23438 0.75,0.156247 1.3437,0.437497 1.7812,0.84375 -1.5,4.656251 -2.5469,8.156251 -3.1406,10.500001 -0.5625,2.3125 -1.1875,5.5 -1.875,9.5625 -1.0625,6.625 -1.5938,12.60937 -1.5938,17.95312 0,3.53125 0.2813,7.20313 0.8438,11.01563 0.5937,3.78125 1.5469,8 2.8594,12.65625 -1.6563,1.15625 -3.25,2.14062 -4.7813,2.95312 -1.5,0.8125 -2.9375,1.45313 -4.3125,1.92188 -1.3437,0.46875 -2.5312,0.70312 -3.5625,0.70312 -1.8125,0 -3.0937,-0.89062 -3.8437,-2.67187 -0.625,-1.46875 -1.0313,-2.64063 -1.2188,-3.51563 -0.1875,-0.90625 -0.5156,-3.39062 -0.9844,-7.45312 -4.1875,4.375 -8.2031,7.82812 -12.0468,10.35937 -3.8125,2.5 -6.8594,3.75 -9.1407,3.75 -2.625,0 -4.7812,-1.0625 -6.4687,-3.1875 -1.6563,-2.15625 -2.4844,-4.92187 -2.4844,-8.29687 0,-3.03125 0.6406,-6.39063 1.9219,-10.07813 1.3125,-3.71875 3.1093,-7.3125 5.3906,-10.78125 1.5,-2.28125 3.0313,-4.20312 4.5938,-5.76562 1.5937,-1.59375 3.3906,-3.0625 5.3906,-4.40625 3.625,-2.375 6.6562,-3.5625 9.0937,-3.5625 1.1875,0 2.9219,0.78125 5.2032,2.34375 z m 39.9375,28.3125 c 1.4375,-0.96875 2.5312,-1.9375 3.2812,-2.90625 1.6563,-2.03125 2.9375,-4.35938 3.8438,-6.98438 0.7187,-1.71875 1.2812,-3.64062 1.6875,-5.76562 0.4062,-2.125 0.6093,-4.10938 0.6093,-5.95313 0,-1.71875 -0.3594,-2.57812 -1.0781,-2.57812 -1,0 -2.5312,2.20312 -4.5937,6.60937 -1.2188,2.65625 -2.2188,5.3125 -3,7.96875 -0.75,2.625 -1.125,4.89063 -1.125,6.79688 0,0.65625 0.125,1.59375 0.375,2.8125 z m 0.094,1.5 c 0.3437,1.875 1.5625,2.8125 3.6563,2.8125 2.3437,0 5.3906,-1.375 9.1406,-4.125 2.1875,-1.59375 3.6562,-2.39063 4.4062,-2.39063 0.9375,0 1.8125,0.25 2.625,0.75 0.8125,0.5 1.2188,1.01563 1.2188,1.54688 0,0.5625 -0.4531,1.29687 -1.3594,2.20312 -1.6563,1.65625 -3.5625,3.28125 -5.7187,4.875 -2.1563,1.5625 -4.2344,2.875 -6.2344,3.9375 -2,1.03125 -4,1.85938 -6,2.48438 -2,0.59375 -3.7813,0.89062 -5.3438,0.89062 -3.9062,0 -7.0312,-1.10937 -9.375,-3.32812 -2.3437,-2.25 -3.5156,-5.23438 -3.5156,-8.95313 0,-2.84375 0.6094,-6.04687 1.8281,-9.60937 1.25,-3.59375 2.9219,-6.95313 5.0157,-10.07813 2.4687,-3.65625 5.5,-6.70312 9.0937,-9.14062 4.4375,-2.9375 8.6875,-4.40625 12.75,-4.40625 2.9375,0 5.2344,0.9375 6.8906,2.8125 1.6875,1.84375 2.5313,4.39062 2.5313,7.64062 0,2.53125 -0.6719,5.17188 -2.0156,7.92188 -1.3125,2.75 -3.2657,5.39062 -5.8594,7.92187 -2.125,2.125 -4.2188,3.78125 -6.2813,4.96875 -2.0312,1.1875 -3.8124,1.78125 -5.3437,1.78125 -0.6875,0 -1.3907,-0.17187 -2.1094,-0.51562 z m 105.2813,-11.39063 0.9375,-2.10937 c 7.375,-16.65625 12.7187,-27.48438 16.0312,-32.48438 0.5313,-0.6875 0.9844,-1.21875 1.3594,-1.59375 0.375,-0.40625 0.7969,-0.76562 1.2656,-1.07812 0.5,-0.3125 1.1406,-0.625 1.9219,-0.9375 2.25,-0.96875 5.1562,-1.45313 8.7187,-1.45313 1.8438,0 3.0001,0.15625 3.4688,0.46875 0.5,0.3125 0.75,1.01563 0.75,2.10938 0,0.84375 -0.031,1.75 -0.094,2.71875 -0.25,5.625 -0.375,9.625 -0.375,12 0,6 0.4063,11.6875 1.2188,17.0625 0.5313,3 1.3125,6.04687 2.3437,9.14062 1.0938,2.75 2.1407,4.85938 3.1407,6.32813 1.1875,1.625 2.1875,2.8125 3,3.5625 1,1 1.5,1.76562 1.5,2.29687 0,0.96875 -0.8281,2.28125 -2.4844,3.9375 -2.7813,2.6875 -5.5625,4.03125 -8.3438,4.03125 -3.9062,0 -7.4531,-1.67187 -10.6406,-5.01562 -1.625,-1.625 -2.9219,-3.42188 -3.8906,-5.39063 -0.9375,-2 -1.6407,-4.45312 -2.1094,-7.35937 -0.4687,-2.9375 -0.7812,-6.65625 -0.9375,-11.15625 -0.2187,-4.875 -0.3437,-7.625 -0.375,-8.25 h -0.1875 c -1.9687,3.78125 -3.6094,6.9375 -4.9219,9.46875 -1.3125,2.53125 -2.3906,4.625 -3.2343,6.28125 -0.8125,1.65625 -1.7813,3.64062 -2.9063,5.95312 -3.5625,7.375 -5.8906,11.82813 -6.9844,13.35938 -0.063,0.0625 -0.1877,0.20309 -0.375,0.42187 -0.1875,0.21875 -0.3593,0.39063 -0.5156,0.51563 -0.5313,0.5 -1.1406,0.89062 -1.8281,1.17187 -0.6563,0.25 -1.2188,0.375 -1.6875,0.375 -1.3125,0 -2.7657,-0.8125 -4.3594,-2.4375 -1.5625,-1.65625 -2.9375,-3.78125 -4.125,-6.375 -1.2187,-2.75 -2.2187,-5.54687 -3,-8.39062 -0.75,-2.875 -1.4219,-6.26563 -2.0156,-10.17188 -0.5625,-3.9375 -1.0625,-8.73437 -1.5,-14.39062 h -0.1875 c -0.9375,2.0625 -1.6407,3.60937 -2.1094,4.64062 -0.4687,1.03125 -1.1875,2.625 -2.1562,4.78125 -0.9688,2.15625 -1.5313,3.40625 -1.6875,3.75 -1.2813,2.84375 -2.625,5.71875 -4.0313,8.625 -1.4063,2.90625 -2.5469,5.14063 -3.4219,6.70313 -0.8437,1.5625 -1.7812,3.10937 -2.8125,4.64062 -0.4687,0.71875 -1.2968,1.73438 -2.4843,3.04688 -1.8438,1.75 -3.8594,3.125 -6.0469,4.125 -2.1875,0.96875 -4.2657,1.45312 -6.2344,1.45312 -0.75,0 -1.4062,-0.1875 -1.9687,-0.5625 -0.5625,-0.375 -0.8438,-0.85937 -0.8438,-1.45312 0,-0.53125 0.4219,-1.23438 1.2656,-2.10938 0.4688,-0.5625 1.4844,-2 3.0469,-4.3125 l 2.7188,-4.21875 c 1.6875,-2.5 4.2343,-6.98437 7.6406,-13.45312 l 2.25,-4.21875 c 5.25,-10.0625 8.7969,-16.9375 10.6406,-20.625 1.8437,-3.71875 2.7656,-5.875 2.7656,-6.46875 0,-0.65625 -0.4687,-1.39063 -1.4062,-2.20313 -0.7187,-0.59375 -1.0781,-1.10937 -1.0781,-1.54687 0,-0.6875 0.9062,-1.32813 2.7187,-1.92188 1.8125,-0.625 3.7813,-0.9375 5.9063,-0.9375 4.2812,0 7.3281,0.95313 9.1406,2.85938 1.125,1.1875 2.1719,3.53125 3.1406,7.03125 0.9687,3.46875 1.9375,8.51562 2.9063,15.14062 0.063,0.375 0.1095,0.67188 0.1406,0.89063 0.031,0.1875 0.063,0.35937 0.094,0.51562 0.031,0.15625 0.047,0.35938 0.047,0.60938 0.1875,0.875 0.2813,1.45312 0.2813,1.73437 0.6562,4.03125 1.1562,6.64063 1.5,7.82813 0.3437,1.15625 0.8437,2.17187 1.5,3.04687 z m 65.0625,9.89063 c 1.4375,-0.96875 2.5312,-1.9375 3.2812,-2.90625 1.6563,-2.03125 2.9375,-4.35938 3.8438,-6.98438 0.7187,-1.71875 1.2812,-3.64062 1.6875,-5.76562 0.4062,-2.125 0.6093,-4.10938 0.6093,-5.95313 0,-1.71875 -0.3594,-2.57812 -1.0781,-2.57812 -1,0 -2.5312,2.20312 -4.5937,6.60937 -1.2188,2.65625 -2.2188,5.3125 -3,7.96875 -0.75,2.625 -1.125,4.89063 -1.125,6.79688 0,0.65625 0.125,1.59375 0.375,2.8125 z m 0.094,1.5 c 0.3437,1.875 1.5625,2.8125 3.6563,2.8125 2.3437,0 5.3906,-1.375 9.1406,-4.125 2.1875,-1.59375 3.6562,-2.39063 4.4062,-2.39063 0.9375,0 1.8125,0.25 2.625,0.75 0.8125,0.5 1.2188,1.01563 1.2188,1.54688 0,0.5625 -0.4531,1.29687 -1.3594,2.20312 -1.6563,1.65625 -3.5625,3.28125 -5.7187,4.875 -2.1563,1.5625 -4.2344,2.875 -6.2344,3.9375 -2,1.03125 -4,1.85938 -6,2.48438 -2,0.59375 -3.7813,0.89062 -5.3438,0.89062 -3.9062,0 -7.0312,-1.10937 -9.375,-3.32812 -2.3437,-2.25 -3.5156,-5.23438 -3.5156,-8.95313 0,-2.84375 0.6094,-6.04687 1.8281,-9.60937 1.25,-3.59375 2.9219,-6.95313 5.0157,-10.07813 2.4687,-3.65625 5.5,-6.70312 9.0937,-9.14062 4.4375,-2.9375 8.6875,-4.40625 12.75,-4.40625 2.9375,0 5.2344,0.9375 6.8906,2.8125 1.6875,1.84375 2.5313,4.39062 2.5313,7.64062 0,2.53125 -0.6719,5.17188 -2.0156,7.92188 -1.3125,2.75 -3.2657,5.39062 -5.8594,7.92187 -2.125,2.125 -4.2188,3.78125 -6.2813,4.96875 -2.0312,1.1875 -3.8124,1.78125 -5.3437,1.78125 -0.6875,0 -1.3907,-0.17187 -2.1094,-0.51562 z m 50.0156,-21.98438 c 1.25,-3.53125 2.2969,-7.21875 3.1407,-11.0625 0.8437,-3.875 1.2656,-6.84375 1.2656,-8.90625 0,-0.5625 -0.1563,-0.84375 -0.4688,-0.84375 -0.5,0 -1.375,1.125 -2.625,3.375 -1.25,2.21875 -2.2969,4.48438 -3.1406,6.79688 -1.8125,5.09375 -3.2187,9.32812 -4.2187,12.70312 -0.9688,3.34375 -1.6407,6.15625 -2.0157,8.4375 -0.375,2.28125 -0.5625,4.60938 -0.5625,6.98438 0,2.03125 0.2188,3.51562 0.6563,4.45312 0.4687,0.9375 1.2031,1.40625 2.2031,1.40625 1.7187,0 3.6406,-0.75 5.7656,-2.25 2.125,-1.53125 4.0469,-3.53125 5.7657,-6 1.3437,-1.84375 2.3906,-2.76562 3.1406,-2.76562 0.9687,0 1.4531,0.76562 1.4531,2.29687 0,3.34375 -1.0469,6.60938 -3.1406,9.79688 -2.0937,3.1875 -4.7969,5.78125 -8.1094,7.78125 -3.2813,1.96875 -6.6406,2.95312 -10.0781,2.95312 -4.2187,0 -7.6562,-1.32812 -10.3125,-3.98437 -2.6563,-2.65625 -3.9844,-6.125 -3.9844,-10.40625 0,-3.5 0.75,-7.59375 2.25,-12.28125 1.5,-4.71875 3.5,-9.45313 6,-14.20313 2.5313,-4.78125 5.2969,-9.10937 8.2969,-12.98437 3,-3.875 5.9687,-6.84375 8.9062,-8.90625 1.8125,-1.34375 3.8282,-2.01563 6.0469,-2.01563 1.6875,0 3.2188,0.53125 4.5938,1.59375 1.375,1.03125 2.4375,2.48438 3.1875,4.35938 0.75,1.875 1.125,3.95312 1.125,6.23437 0,4.90625 -0.9688,9.70313 -2.9063,14.39063 -1.9063,4.6875 -4.5781,8.75 -8.0156,12.1875 -1.625,1.65625 -3.1875,2.95312 -4.6875,3.89062 -1.5,0.9375 -2.8125,1.40625 -3.9375,1.40625 -1.0937,0 -1.6406,-0.42187 -1.6406,-1.26562 0,-0.46875 0.4062,-1.35938 1.2187,-2.67188 1.0937,-1.71875 2.375,-4.3125 3.8438,-7.78125 0.125,-0.34375 0.2656,-0.70312 0.4218,-1.07812 0.1563,-0.40625 0.3438,-0.95313 0.5625,-1.64063 z m 49.9219,-12.09375 c 4.6563,0 6.9844,0.54688 6.9844,1.64063 0,1.25 -1.0469,1.92187 -3.1406,2.01562 -2.5313,0.15625 -4.8907,0.875 -7.0782,2.15625 -2.1875,1.28125 -4.1406,3.03125 -5.8593,5.25 -1.6875,2.21875 -3.0157,4.71875 -3.9844,7.5 -0.9375,2.78125 -1.4063,5.71875 -1.4063,8.8125 0,3.40625 0.7969,6.15625 2.3907,8.25 1.5937,2.0625 3.6718,3.09375 6.2343,3.09375 2.375,0 4.4531,-1.21875 6.2344,-3.65625 1.7813,-2.4375 2.6719,-5.28125 2.6719,-8.53125 0,-2.65625 -0.5625,-5.14062 -1.6875,-7.45312 -1.0937,-2.34375 -2.7031,-4.3125 -4.8281,-5.90625 -0.9063,-0.71875 -1.3594,-1.23438 -1.3594,-1.54688 0,-0.4375 0.6406,-1.10937 1.9219,-2.01562 1.4375,-0.96875 3.0468,-1.78125 4.8281,-2.4375 1.7813,-0.65625 3.2813,-0.98438 4.5,-0.98438 1.4063,0 2.7344,0.375 3.9844,1.125 1.2812,0.71875 2.4062,1.76563 3.375,3.14063 0.9687,1.34375 1.7031,2.90625 2.2031,4.6875 0.5313,1.75 0.7969,3.625 0.7969,5.625 0,3.3125 -0.625,6.59375 -1.875,9.84375 -1.25,3.21875 -2.8906,5.82812 -4.9219,7.82812 -2.625,2.53125 -5.7969,4.60938 -9.5156,6.23438 -3.6875,1.59375 -7.2032,2.39062 -10.5469,2.39062 -3.25,0 -6.4844,-0.5625 -9.7031,-1.6875 -3.1875,-1.125 -5.7188,-2.60937 -7.5938,-4.45312 -2.5,-2.5 -3.75,-6.04688 -3.75,-10.64063 0,-3.625 0.8906,-7.25 2.6719,-10.875 1.7813,-3.625 4.1875,-6.90625 7.2187,-9.84375 3.0625,-2.96875 6.4219,-5.29687 10.0782,-6.98437 3.6875,-1.71875 7.4062,-2.57813 11.1562,-2.57813 z"
       sodipodi:nodetypes="ccccccscscsccccscsccccccscccsccsccccccsscsccccsssccccccscscsccccscccsccccsssccsccscsssscccscscccscscccsccccsccscsccccccscccssscsscccccssccsscsssccscsscssccssscccscccsscscsccscscccccccccssssccscsccccssscccssscccsscscscccsscccccccsccccsccccsccccscsccscscsscsccscsssccscsscccscccsccssccsccscccsccsscsscscscscccscccccsccsscsccsscscccsscscscccsscccccccsccccsccccsccccscsccscsccccsssccsccscsssscccscscccscscccscccccccscscsccccscsccccccscccsccsccccccsscsccccsssccccccscscsccccsccccccccsssccsccscsssscccscscccscscccscccsscccsscsccssscsssccscscssccsssccccsscsccscsssccscsscccscccsccssccs" /><path
       style="fill:#d5e5ff;fill-opacity:1;stroke:#010101;stroke-width:8.54836;stroke-linecap:square;stroke-opacity:1"
       d="M 1023.2727,870.21273 C 876.177,858.58152 754.97932,784.4227 698.29223,671.36265 c -44.7472,-89.24647 -40.73938,-188.87361 11.14816,-277.12284 6.56646,-11.16811 13.34684,-20.84588 15.0675,-21.50616 1.72066,-0.66028 3.12847,-2.48234 3.12847,-4.04902 0,-4.94505 21.70124,-29.09023 26.79694,-29.81474 2.96689,-0.42183 5.09288,-2.46305 5.49446,-5.27537 0.88609,-6.20542 14.10452,-18.67184 22.78417,-21.48796 4.2966,-1.39403 7.3486,-3.99378 7.80919,-6.65201 1.03347,-5.96455 6.53131,-9.81819 14.00722,-9.81819 5.02622,0 6.83882,-1.43371 9.31989,-7.37174 3.42512,-8.19746 7.73385,-10.9521 17.33821,-11.0846 4.55127,-0.0628 7.22507,-1.61242 9.05213,-5.24624 4.27189,-8.49635 13.79752,-13.4632 22.99856,-11.99189 7.24499,1.15852 8.35114,0.66168 11.3234,-5.08602 4.11996,-7.96713 12.70422,-12.16945 19.54564,-9.56834 5.74813,2.18544 12.43928,-0.63798 12.43928,-5.24892 0,-3.59607 7.5237,-6.39619 15.69561,-5.84148 3.5337,0.23987 6.68655,-1.04689 7.90652,-3.22687 1.5053,-2.68979 3.76815,-3.27802 8.76545,-2.27856 4.63322,0.92664 7.79612,0.28746 10.1309,-2.04731 1.86701,-1.86702 8.53227,-4.14797 14.81169,-5.06877 6.27941,-0.92081 15.51434,-3.14754 20.52205,-4.94827 5.00773,-1.80074 10.29378,-2.53935 11.74676,-1.64136 1.45298,0.89799 5.69467,0.75714 9.42607,-0.313 3.7314,-1.07015 11.2344,-1.94572 16.6734,-1.94572 9.504,0 10.0567,0.36106 14.1962,9.27273 3.3917,7.3018 5.6308,9.42413 10.5344,9.98503 7.16,0.819 14.892,-5.30553 18.8932,-14.9655 2.5433,-6.13988 2.6782,-6.17776 18.1755,-5.10152 8.5872,0.59636 18.0677,1.66938 21.0677,2.38449 3,0.71511 6.9798,1.1151 8.844,0.88888 7.3007,-0.88595 57.851,10.8386 83.0374,19.25956 45.2532,15.13021 91.6596,40.3105 124.1186,67.34715 21.4264,17.84707 43.4092,40.24908 44.0761,44.9165 0.3581,2.50698 2.772,5.48932 5.3642,6.62743 5.9341,2.60545 28.2803,35.89694 39.9215,59.47511 35.9953,72.90578 39.4256,155.75753 9.5515,230.69871 -37.7428,94.68033 -124.3259,171.39508 -232.5135,206.01268 -50.4181,16.13267 -116.5065,24.45688 -164.218,20.68421 z"
       id="path33" /><path
       style="fill:#2a7fff;fill-opacity:1;stroke:#010101;stroke-width:8.54836;stroke-linecap:square;stroke-opacity:1"
       d="m 1021.0909,994.74412 c -37.09317,-3.56825 -58.20235,-6.4424 -81.46793,-11.09234 C 792.22916,954.19303 667.67805,873.15105 593.45034,758.40676 579.61208,737.015 557.36521,689.94264 549.0046,664.36364 504.8719,529.34101 536.68722,386.32964 636.56904,270.75733 l 7.35932,-8.5154 9.95236,10.69721 c 5.4738,5.88348 14.97274,16.58813 21.10876,23.78813 9.5639,11.22228 10.67947,13.4457 7.81525,15.57643 -2.86985,2.13492 -1.01085,6.05948 13.1789,27.82221 9.08603,13.93519 17.04053,26.69306 17.67668,28.35083 0.63615,1.65777 -2.20999,8.28323 -6.32475,14.72324 -57.39215,89.82453 -62.23995,201.14231 -12.94274,297.19812 31.07215,60.54421 84.06149,112.19457 151.09378,147.27581 30.38834,15.90368 51.9204,24.56011 82.5807,33.19944 104.53,29.45402 219.9235,19.82611 316.1952,-26.38185 178.5823,-85.71504 251.4891,-271.91706 169.2337,-432.21855 -5.3108,-10.34988 -14.0173,-25.07715 -19.3477,-32.72727 l -9.6916,-13.90932 12.2508,-1.59505 c 32.8324,-4.27477 66.4583,-19.91908 72.5495,-33.75337 1.8121,-4.11543 4.9491,-7.25245 7.6364,-7.63636 7.4124,-1.05894 7.1159,-10.9442 -0.5868,-19.56504 -6.481,-7.25342 -6.5362,-7.26836 -26.8551,-7.26836 -18.8177,0 -21.5183,0.57133 -35.6335,7.53844 -8.4,4.14613 -16.2546,7.9714 -17.4546,8.50058 -1.2,0.52918 -0.2312,-1.23361 2.1529,-3.91731 4.2742,-4.81136 4.276,-4.92239 0.1284,-7.95513 -3.9605,-2.89601 -3.9735,-3.07567 -0.2234,-3.07567 5.8455,0 43.7078,-18.40554 55.9397,-27.19333 l 10.5469,-7.57713 14.1273,15.74887 c 28.4965,31.76739 48.6662,61.34402 67.5369,99.03563 71.1166,142.04546 51.7823,304.22934 -51.5848,432.71323 -82.9661,103.12584 -210.9318,171.32797 -358.2602,190.94263 -25.0223,3.33135 -97.2569,5.93319 -115.6364,4.16513 z"
       id="path42" /><path
       style="fill:#d5e5ff;fill-opacity:1;stroke:#010101;stroke-width:8.54836;stroke-linecap:square;stroke-opacity:1"
       d="M 996,861.95116 C 938.48699,853.68855 881.33485,834.21794 835.60205,807.30672 720.7122,739.70042 657.0202,616.87228 676.54313,500.5663 c 6.63628,-39.53503 27.33838,-90.90912 48.01934,-119.16423 5.10244,-6.97114 12.34126,-16.8615 16.08627,-21.97858 3.74501,-5.11709 10.69473,-11.75668 15.44382,-14.75465 4.74909,-2.99797 8.63471,-6.71866 8.63471,-8.26821 0,-3.7937 12.48561,-15.42075 21.36646,-19.89723 3.95156,-1.99182 8.0799,-5.9762 9.17411,-8.85417 1.39947,-3.68091 4.32564,-5.67095 9.86727,-6.71057 5.98711,-1.12318 9.15922,-3.50775 13.21691,-9.93554 4.28242,-6.7838 6.64618,-8.45767 11.94357,-8.45767 4.82494,0 8.90944,-2.35151 15.15896,-8.72727 7.38745,-7.53668 9.8509,-8.72727 18.0576,-8.72727 8.17173,0 10.47905,-1.10233 16.46903,-7.86812 5.79037,-6.54033 7.93979,-7.6237 12.73689,-6.4197 6.69061,1.67924 18.19102,-2.41157 18.19102,-6.47072 0,-3.40822 4.88247,-5.42328 13.14059,-5.42328 3.43104,0 6.84504,-0.98182 7.58668,-2.18182 0.74165,-1.2 4.3005,-2.18182 7.90857,-2.18182 3.60807,0 8.6621,-1.12494 11.23119,-2.49988 7.558,-4.04491 36.53896,-10.76612 50.56488,-11.72691 7.1376,-0.48893 15.6263,-1.47075 18.8638,-2.18183 5.1113,-1.12263 6.715,-0.0557 12.1797,8.10334 5.0428,7.52898 7.7645,9.53766 13.696,10.10807 9.4718,0.91087 16.5468,-2.92768 22.172,-12.02956 5.2709,-8.52855 6.978,-8.6906 42.293,-4.01508 92.7115,12.27452 183.401,55.85627 235.6363,113.2374 23.8294,26.17688 31.0121,35.0347 40.9166,50.459 20.7832,32.36558 34.609,65.59111 42.4973,102.12729 5.3134,24.60949 5.2933,80.62846 -0.038,105.5636 -12.2187,57.15173 -39.766,107.74161 -83.3397,153.05123 -57.6534,59.95028 -129.9942,97.26995 -221.1521,114.08944 -30.7483,5.67333 -99.6914,7.33974 -129.0662,3.1196 z"
       id="path43" /><path
       style="fill:#87aade;fill-opacity:1;stroke:#010101;stroke-width:8.54836;stroke-linecap:square;stroke-opacity:1"
       d="M 984,854.26815 C 895.04596,838.28498 825.45708,803.87487 770.06383,748.48163 710.42288,688.84067 679.32835,619.13513 679.01005,544.36364 c -0.13176,-30.95069 3.09625,-50.51023 13.69036,-82.95424 16.12954,-49.39603 38.35753,-85.25069 73.95462,-119.2918 11.53974,-11.03533 24.56385,-23.50988 28.94248,-27.72123 4.37863,-4.21136 10.43043,-8.27676 13.44844,-9.03423 3.01802,-0.75748 8.93638,-5.21929 13.15194,-9.91514 4.22992,-4.71185 9.68882,-8.53791 12.18164,-8.53791 2.48434,0 8.42003,-3.52616 13.19041,-7.83591 6.16109,-5.56618 11.37675,-8.17261 18.00628,-8.9983 5.99257,-0.74636 11.67553,-3.31451 15.87833,-7.17547 4.67787,-4.29741 9.63352,-6.33723 17.36845,-7.14911 7.34103,-0.77054 11.9986,-2.58783 14.47712,-5.64869 3.42354,-4.22788 10.32603,-6.68888 31.42715,-11.20495 4.8,-1.0273 15.6,-3.90719 24,-6.39977 8.4,-2.49258 23.83706,-5.57516 34.30453,-6.85019 l 19.0319,-2.31824 8.4485,8.88123 c 7.596,7.98502 9.5074,8.88122 18.9423,8.88122 9.4046,0 11.3556,-0.90588 18.7959,-8.72727 7.4352,-7.816 9.3933,-8.72636 18.7531,-8.7185 5.7481,0.005 19.7646,1.51918 31.1479,3.36524 130.8098,21.21382 234.7437,92.98453 283.8035,195.97836 11.4396,24.01562 20.6678,53.18021 23.905,75.54851 2.6418,18.25377 2.6418,62.48991 0,80.74368 -14.268,98.58794 -96.2095,197.56909 -201.8599,243.83662 -38.8018,16.9925 -84.467,29.30948 -122.9584,33.16479 -35.2283,3.52848 -91.5925,2.55849 -117.0416,-2.01419 z"
       id="path44" /><path
       style="fill:#87aade;fill-opacity:1;stroke:#010101;stroke-width:8.54836;stroke-linecap:square;stroke-opacity:1"
       d="M 1021.0909,851.68979 C 958.35408,849.00388 891.86417,828.32354 837.81818,794.68652 759.64368,746.03243 706.29319,673.17391 688.96596,591.40529 c -4.56201,-21.5285 -5.04542,-74.74389 -0.85064,-93.6404 8.11524,-36.5572 25.59978,-78.15016 45.42887,-108.06807 13.13033,-19.81088 63.71803,-71.94735 75.91036,-78.23438 3.6,-1.85636 10.85641,-7.15847 16.12536,-11.78246 5.26894,-4.62399 10.72098,-8.40725 12.11563,-8.40725 1.39465,0 6.569,-2.96611 11.49857,-6.59136 4.92957,-3.62524 13.39734,-7.92594 18.81727,-9.55709 5.41992,-1.63116 12.72544,-5.0101 16.23447,-7.50875 3.50903,-2.49865 11.00889,-5.58034 16.66637,-6.84821 5.65745,-1.26787 12.92118,-4.22531 16.14159,-6.57211 6.81772,-4.96826 68.83202,-21.12089 89.03579,-23.19083 13.6269,-1.39611 13.9364,-1.30686 22.5968,6.51733 7.8529,7.09456 10.0475,7.93284 20.7681,7.93284 10.7649,0 12.9014,-0.82565 20.9481,-8.0954 8.3312,-7.5267 9.826,-8.06104 21.279,-7.60629 23.0792,0.91638 64.3843,9.56075 97.0939,20.31992 30.8676,10.15328 82.399,36.54202 106.1336,54.34995 63.302,47.49524 103.0903,105.35649 121.4857,176.66818 5.0027,19.39381 5.2896,23.53457 4.4582,64.36364 -0.8044,39.50646 -1.4424,45.49481 -6.7414,63.27272 -7.9545,26.68696 -28.8219,67.93822 -46.1461,91.22269 -46.3754,62.33075 -107.4263,106.68214 -180.3461,131.01515 -54.1206,18.05983 -98.8241,23.62325 -166.5285,20.72468 z"
       id="path45" /><path
       style="fill:#87aade;fill-opacity:1;stroke:#010101;stroke-width:8.54836;stroke-linecap:square;stroke-opacity:1"
       d="m 1196.6703,226.19266 -16.4205,-5.82902 8.5872,-7.63637 c 7.8941,-7.01992 16.5898,-18.64657 16.6094,-22.20779 0,-0.81429 -1.393,-2.8817 -3.1056,-4.59425 -2.6971,-2.69709 -2.1169,-4.51578 4.3361,-13.592 13.747,-19.33544 21.0145,-49.95096 13.614,-57.35141 -1.7483,-1.74826 -1.8266,-2.61818 -0.2359,-2.61818 2.3895,0 48.3001,14.99771 60.7837,19.85633 l 6.6569,2.59086 -36.1114,48.6559 c -19.8613,26.76074 -36.6024,48.63318 -37.2024,48.60542 -0.6,-0.0278 -8.4802,-2.67353 -17.5115,-5.87949 z"
       id="path46" /><path
       style="fill:#87aade;fill-opacity:1;stroke:#010101;stroke-width:8.54836;stroke-linecap:square;stroke-opacity:1"
       d="m 1078.1922,204.60254 c -4.7801,-0.71682 -5.8249,-1.74991 -4.6341,-4.58219 0.8456,-2.01119 2.0269,-11.19934 2.6251,-20.4181 1.0478,-16.14743 0.8662,-16.96661 -4.9573,-22.36364 -3.3247,-3.08124 -5.0073,-5.60225 -3.7391,-5.60225 1.2682,0 4.4797,-4.49077 7.1367,-9.9795 6.7003,-13.84086 6.7637,-35.77864 0.1294,-44.752041 -4.3653,-5.904268 -4.416,-6.359364 -0.7089,-6.359364 8.2666,0 62.605,4.731978 63.9609,5.56993 0.7784,0.481104 -2.1916,4.666425 -6.6001,9.300725 -15.7617,16.56901 -28.5942,53.3765 -29.2326,83.8481 l -0.354,16.90058 -8.7273,-0.31839 c -4.8,-0.17512 -11.5044,-0.73486 -14.8987,-1.24386 z"
       id="path47" /><path
       style="fill:#87aade;fill-opacity:1;stroke:#010101;stroke-width:8.54836;stroke-linecap:square;stroke-opacity:1"
       d="m 1030.2295,132.51166 c -2.6171,-15.56721 -7.9933,-26.5967 -13.6572,-28.01824 -4.825,-1.21099 -4.9276,-1.57828 -1.7825,-6.378333 1.8355,-2.801342 4.986,-5.205465 7.001,-5.342495 2.0151,-0.137031 10.5365,-0.775731 18.9365,-1.419333 L 1056,90.183072 l -6.9803,7.272101 C 1040.9296,105.88342 1035.3776,118.06499 1033.2753,132 l -1.4813,9.81818 z"
       id="path48" /><path
       style="fill:#87aade;fill-opacity:1;stroke:#010101;stroke-width:8.54836;stroke-linecap:square;stroke-opacity:1"
       d="m 968.24863,146.18182 c -2.65663,-13.2 -5.46688,-29.05253 -6.245,-35.22785 -1.58959,-12.615429 -1.93258,-12.318454 17.2402,-14.927186 l 10.51655,-1.430928 -3.34258,5.101423 c -6.80702,10.388831 -10.53475,25.269371 -11.91813,47.575451 l -1.42079,22.90909 z"
       id="path49" /><path
       style="fill:#87aade;fill-opacity:1;stroke:#010101;stroke-width:8.54836;stroke-linecap:square;stroke-opacity:1"
       d="M 756.51023,261.76039 C 741.51813,248.19331 708,210.01983 708,206.51254 c 0,-3.9398 49.95852,-35.88385 80.0191,-51.16515 42.27349,-21.48971 98.83519,-42.22764 132.29364,-48.50448 l 8.01758,-1.50411 -4.8598,10.60333 c -4.05614,8.84985 -4.86521,14.47912 -4.89244,34.04034 l -0.0326,23.43702 -3.31368,-9.90554 c -1.82252,-5.44805 -4.3809,-10.59471 -5.68528,-11.43702 -1.30439,-0.84231 -3.07635,-5.36102 -3.93769,-10.04158 -1.93239,-10.50074 -11.78859,-20.94444 -19.76622,-20.94444 -15.61378,0 -22.84026,13.46579 -22.83224,42.54545 0.003,10.8 0.99397,23.92384 2.20219,29.16409 1.77872,7.71458 1.58215,9.9982 -1.03294,12 -1.77633,1.35975 -3.52524,6.36178 -3.88646,11.11562 l -0.65677,8.64333 -6.75158,-13.89175 c -6.56183,-13.50131 -6.63848,-14.00486 -2.72728,-17.91606 4.87799,-4.87799 5.09493,-12.71809 0.75618,-27.32825 -4.73135,-15.93218 -10.84752,-22.91464 -19.34779,-22.08821 -5.59471,0.54393 -7.33303,2.05389 -9.55673,8.30123 -6.78585,19.06442 6.80827,71.86039 24.46265,95.00648 l 5.29653,6.9441 -5.62067,2.56095 c -3.09136,1.40852 -5.86833,2.27873 -6.17103,1.9338 -0.30271,-0.34493 -3.82657,-7.00896 -7.8308,-14.80896 -5.16464,-10.06042 -7.09363,-16.49646 -6.63767,-22.14655 0.69207,-8.57582 -10.29312,-35.17904 -20.81107,-50.39891 -5.94558,-8.60346 -15.96983,-11.60406 -15.96983,-4.78032 0,1.87082 -1.02482,2.76811 -2.27739,1.99398 -3.63483,-2.24644 -8.63637,3.34913 -8.57991,9.59895 0.0285,3.15307 2.47848,11.62376 5.44444,18.82376 6.02859,14.63465 7.07135,20.94676 1.80219,10.90909 -5.92761,-11.29201 -18.53277,-22.90909 -24.8576,-22.90909 -17.177,0 -18.67902,28.07492 -3.2412,60.58257 4.21228,8.86987 9.70061,18.99465 12.19629,22.4995 7.0089,9.8431 1.95754,7.58248 -12.70386,-5.68532 z"
       id="path50" /><path
       style="fill:#87aade;fill-opacity:1;stroke:#010101;stroke-width:8.54836;stroke-linecap:square;stroke-opacity:1"
       d="m 684.3689,252.34815 -15.99475,-14.52997 5.62251,-5.28133 c 3.09237,-2.90473 5.98376,-4.86837 6.42531,-4.36363 2.68855,3.07328 21.39706,37.27769 20.74124,37.92081 -0.43976,0.43125 -7.99721,-5.7544 -16.79431,-13.74588 z"
       id="path51" /><path
       style="fill:#87aade;fill-opacity:1;stroke:#010101;stroke-width:8.54836;stroke-linecap:square;stroke-opacity:1"
       d="m 742.36364,300.34063 c -6.9,-11.76959 -12.54546,-22.22215 -12.54546,-23.2279 0,-1.00575 6.62727,4.55679 14.72727,12.3612 8.1,7.8044 17.03592,15.41694 19.85759,16.91675 l 5.13032,2.72691 -6.08397,6.3503 c -3.34618,3.49266 -6.63664,6.33268 -7.31213,6.31114 -0.67549,-0.0215 -6.87362,-9.66881 -13.77362,-21.4384 z"
       id="path52" /><path
       style="fill:#87aade;fill-opacity:1;stroke:#010101;stroke-width:8.54836;stroke-linecap:square;stroke-opacity:1"
       d="m 725.51966,351.85371 c -0.0358,-2.08045 -7.46246,-14.72857 -16.50365,-28.10691 -9.04119,-13.37835 -16.13827,-24.62454 -15.77128,-24.99153 0.367,-0.367 9.49597,6.39021 20.28662,15.01601 10.79064,8.62579 21.78521,17.15599 24.43239,18.95599 l 4.81304,3.27273 -8.59601,9.81818 c -5.91899,6.76055 -8.61628,8.64017 -8.66111,6.03553 z"
       id="path53" /><path
       style="fill:#87aade;fill-opacity:1;stroke:#010101;stroke-width:8.54836;stroke-linecap:square;stroke-opacity:1"
       d="m 1241.9164,244.17777 -10.4471,-5.43724 6.6439,-6.64391 c 3.6541,-3.65415 13.6936,-16.35985 22.3098,-28.23488 8.6163,-11.87503 15.9142,-21.34271 16.2176,-21.03929 0.3035,0.30342 -3.2984,11.32886 -8.0042,24.50097 -4.7057,13.17212 -9.5937,28.12203 -10.8621,33.22203 -1.2683,5.1 -3.0046,9.22702 -3.8584,9.17114 -0.8537,-0.0559 -6.2535,-2.54834 -11.9995,-5.53882 z"
       id="path54" /><path
       style="fill:#87aade;fill-opacity:1;stroke:#010101;stroke-width:8.54836;stroke-linecap:square;stroke-opacity:1"
       d="m 1277.4545,262.46834 c -4.2,-2.60198 -7.9867,-4.98125 -8.4149,-5.28727 -0.4282,-0.30602 7.8025,-10.46621 18.2905,-22.5782 10.4881,-12.11199 19.3637,-21.72724 19.7237,-21.36722 0.3601,0.36002 -2.7256,7.5111 -6.8569,15.89128 -4.1314,8.38019 -8.7163,20.39125 -10.1887,26.69125 -1.4725,6.3 -3.1812,11.43801 -3.7973,11.41779 -0.616,-0.0202 -4.5564,-2.16565 -8.7564,-4.76763 z"
       id="path55" /><path
       style="fill:#87aade;fill-opacity:1;stroke:#010101;stroke-width:8.54836;stroke-linecap:square;stroke-opacity:1"
       d="m 1321.0909,252.90679 c 0,-4.93578 19.8687,-41.9862 36.4724,-68.01254 l 7.317,-11.46939 16.8326,11.3022 c 22.19,14.89943 50.6572,36.52685 50.6257,38.4619 -0.014,0.84607 -4.1865,3.50195 -9.2727,5.90195 -5.0863,2.4 -15.5141,8.53636 -23.173,13.63636 -7.6589,5.1 -14.4906,9.27273 -15.1815,9.27273 -0.691,0 2.7607,-4.17273 7.6704,-9.27273 15.3203,-15.91407 18.1053,-27.07848 8.3494,-33.47076 -12.7469,-8.35209 -38.1852,3.06667 -63.8221,28.64845 -8.7,8.68131 -15.8182,15.43213 -15.8182,15.00183 z"
       id="path56" /><path
       style="fill:#87aade;fill-opacity:1;stroke:#010101;stroke-width:8.54836;stroke-linecap:square;stroke-opacity:1"
       d="m 1360.6098,327.53476 -4.8698,-5.18363 14.6376,-6.84976 c 8.0507,-3.76737 14.8775,-6.58728 15.1706,-6.26647 0.2931,0.3208 -4.1024,5.73583 -9.7679,12.03338 l -10.3007,11.4501 z"
       id="path57" /><path
       style="fill:#87aade;fill-opacity:1;stroke:#010101;stroke-width:8.54836;stroke-linecap:square;stroke-opacity:1"
       d="m 1331.9464,301.03383 c -2.78,-2.95914 -4.6416,-5.68953 -4.1368,-6.06754 1.7237,-1.29096 20.2363,-8.01169 20.6268,-7.48828 0.2142,0.28709 -2.2712,4.66516 -5.5231,9.72904 l -5.9124,9.20705 z"
       id="path58" /><path
       style="fill:#87aade;fill-opacity:1;stroke:#010101;stroke-width:8.54836;stroke-linecap:square;stroke-opacity:1"
       d=""
       id="path59" /><path
       style="fill:#87aade;fill-opacity:1;stroke:#010101;stroke-width:8.54836;stroke-linecap:square;stroke-opacity:1"
       d=""
       id="path60" /><path
       style="fill:#87aade;fill-opacity:1;stroke:#010101;stroke-width:8.54836;stroke-linecap:square;stroke-opacity:1"
       d=""
       id="path61" /><path
       style="fill:#eeffaa;fill-opacity:1;stroke:#010101;stroke-width:8.54836;stroke-linecap:square;stroke-opacity:1"
       d="m 1308,182.44326 c 0,-3.75193 12.8863,-30.80788 14.636,-30.72958 0.9502,0.0425 3.8482,1.26979 6.44,2.72727 4.5799,2.57549 4.35,3.03482 -8.1818,16.34438 -7.0918,7.53194 -12.8942,12.77801 -12.8942,11.65793 z"
       id="path62" /><path
       style="fill:#eeffaa;fill-opacity:1;stroke:#010101;stroke-width:8.54836;stroke-linecap:square;stroke-opacity:0"
       d="m 736.06301,322.56841 c -12.46531,-8.49928 -29.20722,-22.2922 -51.78992,-42.66742 -13.89422,-12.53604 -19.20748,-14.26679 -16.43551,-5.35374 l 1.46962,4.72548 -4.91239,-4.36364 c -2.70182,-2.4 -9.2645,-10.44983 -14.58374,-17.8885 -5.31924,-7.43868 -11.5846,-14.13212 -13.92302,-14.8743 -5.42806,-1.7228 -5.41876,-5.86834 0.0242,-10.79415 4.11205,-3.72135 4.63456,-3.6577 13.63637,1.66128 5.14826,3.042 21.6332,16.51165 36.6332,29.93255 24.17616,21.63106 39.27273,32.95151 39.27273,29.44942 0,-0.64416 -7.48497,-13.59158 -16.63326,-28.77204 -9.1483,-15.18045 -20.48802,-35.63436 -25.1994,-45.45313 -7.61426,-15.86854 -8.27272,-18.4963 -5.92562,-23.64763 1.45229,-3.18743 3.41649,-5.79532 4.3649,-5.79532 0.94841,0 9.81195,10.06364 19.69675,22.36364 23.04196,28.6719 54.56687,61.08073 67.46707,69.35877 10.06003,6.4555 15.13865,13.7805 15.13865,21.8348 0,11.20017 -19.23566,-1.12044 -48.45849,-31.03809 -37.39101,-38.28005 -37.70438,-33.41393 -1.7757,27.57381 9.6288,16.34457 17.50691,30.16917 17.50691,30.72133 0,2.52729 -4.77643,0.3886 -15.57335,-6.97312 z"
       id="path65" /><path
       style="fill:#eeffaa;fill-opacity:1;stroke:#010101;stroke-width:8.54836;stroke-linecap:square;stroke-opacity:0"
       d="m 704.17257,341.40112 c -13.15468,-19.90274 -15.10272,-23.94657 -11.53585,-23.94657 5.77071,0 24.65813,27.66806 29.41572,43.0909 3.12607,10.1339 -2.53422,4.07331 -17.87987,-19.14433 z"
       id="path66" /><path
       style="fill:#eeffaa;fill-opacity:1;stroke:#010101;stroke-width:8.54836;stroke-linecap:square;stroke-opacity:0"
       d="m 796.07411,287.07747 c -3.6321,-2.20881 -9.76556,-7.81394 -13.62991,-12.45584 -10.30259,-12.37558 -27.90156,-48.69508 -29.6081,-61.10305 -1.77429,-12.90067 1.33789,-22.60949 7.24752,-22.60949 9.53219,0 27.2677,28.91559 29.77933,48.55158 l 1.18528,9.2666 -5.27506,-11.17001 c -12.97989,-27.48512 -27.59135,-43.9819 -27.59135,-31.15148 0,6.87385 16.32967,40.37102 25.61841,52.55122 6.46573,8.47843 9.28231,10.55464 13.62941,10.04678 4.74575,-0.55443 5.62866,-1.9548 6.59376,-10.45833 l 1.11432,-9.81818 1.61295,7.36364 c 2.5957,11.85011 1.91048,30.03696 -1.22988,32.64323 -2.08985,1.73442 -4.59205,1.29561 -9.44668,-1.65667 z"
       id="path67" /><path
       style="fill:#eeffaa;fill-opacity:1;stroke:#010101;stroke-width:8.54836;stroke-linecap:square;stroke-opacity:0"
       d="m 827.57185,264.54545 c -15.55374,-20.77146 -40.47468,-70.05586 -42.47242,-83.99476 l -1.17338,-8.18705 5.59487,6.54545 5.59488,6.54546 0.0785,-7.21968 c 0.0972,-8.93868 2.47352,-7.63501 9.72163,5.33326 6.97944,12.48759 7.19182,16.11472 0.57985,9.9031 -2.77734,-2.60918 -5.71484,-4.74396 -6.52779,-4.74396 -2.56306,0 5.23227,17.1133 19.75475,43.36809 12.15638,21.97721 18.94198,39.541 15.27628,39.541 -0.61459,0 -3.50679,-3.19091 -6.42713,-7.09091 z"
       id="path68" /><path
       style="fill:#eeffaa;fill-opacity:1;stroke:#010101;stroke-width:8.54836;stroke-linecap:square;stroke-opacity:0"
       d="m 857.7028,249.62365 c -7.78441,-6.12321 -24.14906,-40.79852 -28.42784,-60.23617 -5.47881,-24.8891 -4.18154,-39.93293 3.44352,-39.93293 5.14524,0 14.9512,19.61583 14.72432,29.45454 -0.083,3.6 -0.63096,5.07273 -1.21766,3.27273 -3.59699,-11.03558 -8.38004,-19.63637 -10.92014,-19.63637 -4.48986,0 -3.5848,10.06668 2.54942,28.3562 6.00341,17.8995 23.79536,51.88626 25.56081,48.82707 0.60641,-1.05079 1.87478,-5.83781 2.81859,-10.63781 l 1.71603,-8.72727 2.03037,9.56964 c 2.39708,11.29799 0.47278,24.24854 -3.60303,24.24854 -1.58379,0 -5.48727,-2.05118 -8.67439,-4.55817 z"
       id="path69" /><path
       style="fill:#eeffaa;fill-opacity:1;stroke:#010101;stroke-width:8.54836;stroke-linecap:square;stroke-opacity:0"
       d=""
       id="path70" /><path
       style="fill:#eeffaa;fill-opacity:1;stroke:#010101;stroke-width:8.54836;stroke-linecap:square;stroke-opacity:0"
       d="m 892.87519,236.73985 c -12.95283,-10.18869 -23.42064,-42.61079 -23.42064,-72.54105 0,-20.16118 3.59884,-33.38685 9.72454,-35.7375 9.83958,-3.7758 18.38828,4.4103 21.92315,20.99325 0.89528,4.2 2.61414,8.26424 3.81968,9.03166 2.81083,1.78931 21.2599,57.70045 21.2599,64.42956 0,9.43112 -4.60497,5.17644 -12.20804,-11.27941 -4.15825,-9 -8.51255,-16.36363 -9.67621,-16.36363 -1.21156,0 -2.13003,8.62493 -2.14916,20.18182 -0.0404,24.41782 -1.38049,27.49373 -9.27322,21.2853 z m 7.51133,-36.03606 c 3.62137,-20.41661 0.99388,-37.59077 -4.30298,-28.1258 -1.51726,2.71119 -2.27163,1.19408 -3.11154,-6.25762 -1.37264,-12.17801 -8.22682,-26.68401 -12.60836,-26.68401 -8.12316,0 -3.15721,47.88438 6.636,63.98804 5.89375,9.69149 11.36142,8.49861 13.38688,-2.92061 z"
       id="path71" /><path
       style="fill:#eeffaa;fill-opacity:1;stroke:#010101;stroke-width:8.54836;stroke-linecap:square;stroke-opacity:0"
       d="m 935.81353,209.66026 c -10.32395,-22.55049 -14.75986,-61.8452 -9.38931,-83.17359 3.19758,-12.69873 7.13856,-16.01774 12.86543,-10.83499 4.26473,3.85952 4.2877,3.62323 2.90503,-29.885509 -1.2874,-31.199882 -1.09536,-33.89027 2.51809,-35.276883 2.15148,-0.825601 4.43405,-0.97883 5.07237,-0.340509 0.63832,0.638321 1.96435,13.179613 2.94672,27.86954 2.25699,33.749741 8.86133,73.205781 17.04741,101.845541 4.7268,16.53716 5.84337,23.61923 4.34513,27.5599 -3.1629,8.31904 -5.54738,6.36715 -10.17963,-8.33285 -5.18514,-16.45454 -9.67759,-17.88788 -11.96722,-3.81818 -2.44191,15.00544 -6.09147,26.18182 -8.54947,26.18182 -1.21822,0 -4.64477,-5.30743 -7.61455,-11.79429 z m 16.33667,-25.6222 c 2.97405,-8.53137 3.13716,-23.67442 0.255,-23.67442 -1.17713,0 -2.72334,-2.7 -3.43602,-6 -0.71267,-3.3 -3.30563,-11.64546 -5.76213,-18.54546 -3.28743,-9.23398 -5.54796,-12.54545 -8.56398,-12.54545 -3.43615,0 -4.09495,1.67296 -4.08113,10.36363 0.0226,14.23045 3.71152,36.84375 7.8302,48 4.22573,11.44623 10.23918,12.49598 13.75806,2.4017 z"
       id="path72" /><path
       style="fill:#eeffaa;fill-opacity:1;stroke:#010101;stroke-width:8.54836;stroke-linecap:square;stroke-opacity:0"
       d="m 996.36229,202.87913 c -8.94298,-7.52503 -13.66983,-22.31236 -15.03039,-47.02063 -1.75246,-31.82551 8.01186,-58.939412 21.8041,-60.546429 l 5.9042,-0.687929 -6.3432,6.343168 c -8.97964,8.97967 -11.71608,21.49891 -10.61601,48.56851 0.98254,24.17757 5.17652,37.50112 13.31951,42.31384 13.7706,8.13872 16.2316,-41.43283 3.2074,-64.60616 l -4.7439,-8.44079 4.6763,-4.67633 c 3.8285,-3.82854 5.2697,-4.18388 7.9493,-1.96002 5.5802,4.63121 8.5494,24.25806 7.3392,48.51461 -1.1677,23.4072 -4.6606,35.42354 -12.6064,43.36933 -5.5543,5.55432 -7.003,5.44014 -14.86011,-1.17117 z"
       id="path73" /><path
       style="fill:#e5ff80;fill-opacity:1;stroke:#010101;stroke-width:8.54836;stroke-linecap:square;stroke-opacity:0"
       d="m 1042.1684,220.26098 c -3.3289,-7.30606 -3.0586,-17.95386 0.6619,-26.07916 2.935,-6.40986 3.0008,-6.26563 3.1743,6.96214 0.098,7.42918 0.9605,13.99167 1.9178,14.58331 5.4208,3.35025 11.3503,-9.20274 11.3503,-24.02895 0,-8.7198 -0.9932,-10.72746 -8.7541,-17.69456 -5.0176,-4.50435 -9.7931,-11.32636 -11.1882,-15.98268 -5.2488,-17.51913 4.7331,-49.76958 18.4865,-59.727827 l 6.1806,-4.475071 4.1134,5.064777 c 6.2091,7.645101 7.3084,18.085171 3.3415,31.731111 -1.9304,6.64011 -4.3257,12.57723 -5.323,13.19361 -0.9973,0.61637 -1.7208,-7.1315 -1.6077,-17.2175 0.238,-21.22826 -2.5672,-26.893119 -8.69,-17.54856 -2.5189,3.84429 -4.1832,11.67274 -4.8199,22.6721 l -0.9726,16.80036 10.0713,8.25267 c 9.7109,7.9573 10.0713,8.6742 10.0713,20.03035 0,13.38499 -4.5451,28.48457 -12.2464,40.68416 -6.1121,9.68213 -12.138,10.7445 -15.767,2.77972 z"
       id="path74" /><path
       style="fill:#e5ff80;fill-opacity:1;stroke:#010101;stroke-width:8.54836;stroke-linecap:square;stroke-opacity:0"
       d=""
       id="path75" /><path
       style="fill:#e5ff80;fill-opacity:1;stroke:#010101;stroke-width:8.54836;stroke-linecap:square;stroke-opacity:0"
       d=""
       id="path76" /><path
       style="fill:#e5ff80;fill-opacity:1;stroke:#010101;stroke-width:8.54836;stroke-linecap:square;stroke-opacity:0"
       d="m 1138.478,197.03173 c 0.8184,-11.77275 0.4054,-17.04586 -1.3828,-17.65501 -1.4024,-0.4777 -6.5872,5.12551 -11.5218,12.4516 -4.9347,7.32609 -10.5221,14.60655 -12.4166,16.17881 -3.0049,2.49385 -3.6342,1.84715 -4.9314,-5.06756 -2.1251,-11.32755 0.651,-31.78551 7.0843,-52.20751 6.825,-21.66504 11.5299,-31.13324 19.9495,-40.14645 7.5241,-8.05463 10.4475,-8.66533 12.3772,-2.58561 2.5879,8.15375 5.1047,4.39892 12.062,-17.995204 8.884,-28.595569 14.0183,-38.732069 19.6187,-38.732069 2.3756,0 4.3193,0.531693 4.3193,1.181539 0,0.649847 -3.3905,10.92221 -7.5345,22.827474 -10.2849,29.54783 -19.9185,70.0209 -24.1465,101.44553 -3.0459,22.63884 -4.2751,26.91994 -9.0835,31.63637 l -5.5609,5.45454 z m -4.3958,-20.91182 c 6.8187,-7.11722 12.211,-20.56763 8.713,-21.73362 -1.5087,-0.50292 -1.65,-3.52534 -0.4136,-8.8478 1.0329,-4.44617 1.9014,-13.23849 1.93,-19.53849 0.044,-9.79916 -0.5444,-11.45455 -4.0747,-11.45455 -2.7355,0 -5.2355,2.77104 -7.4156,8.21959 -8.0874,20.21239 -13.398,49.21938 -10.1293,55.32702 2.9223,5.46029 4.5374,5.18065 11.3902,-1.97215 z"
       id="path77" /><path
       style="fill:#c87137;fill-opacity:1;stroke:#010101;stroke-width:8.54836;stroke-linecap:square;stroke-opacity:0"
       d=""
       id="path78" /><path
       style="fill:#c87137;fill-opacity:1;stroke:#010101;stroke-width:8.54836;stroke-linecap:square;stroke-opacity:0"
       d="m 1139.6133,196.23806 c 0.5373,-8.43863 -0.034,-15.34978 -1.3805,-16.6962 -1.6087,-1.60864 -1.153,-4.43256 1.5198,-9.41946 2.8799,-5.37322 3.931,-13.1368 4.2809,-31.61662 l 0.4637,-24.49455 -5.5213,1.05547 c -6.5232,1.24697 -7.0393,-0.65305 -1.5314,-5.63764 5.0504,-4.57052 6.8204,-4.53543 10.4553,0.2073 3.9686,5.17802 5.5468,2.56792 14.1822,-23.454542 8.4869,-25.574913 12.0177,-32.727273 16.1558,-32.727273 4.3115,0 4.2208,0.606871 -3.4468,23.045263 -8.7749,25.678812 -18.33,65.626952 -23.6971,99.073122 -3.0605,19.07171 -5.5165,28.18305 -8.365,31.0315 -3.922,3.92204 -4.0073,3.63823 -3.1156,-10.36637 z"
       id="path79" /><path
       style="fill:#c87137;fill-opacity:1;stroke:#010101;stroke-width:8.54836;stroke-linecap:square;stroke-opacity:0"
       d="m 1109.923,188.71902 c 1.128,-20.88078 10.4958,-55.17262 18.3773,-67.27196 5.2319,-8.03184 5.5458,-4.35928 0.8051,9.41981 -5.7111,16.59967 -9.5496,39.07204 -7.8384,45.88993 0.8767,3.49293 2.8996,5.42502 5.68,5.42502 3.8472,0 3.4821,1.16417 -3.3458,10.66812 -14.1887,19.74966 -14.9557,19.51803 -13.6782,-4.13092 z"
       id="path80" /><path
       style="fill:#c87137;fill-opacity:1;stroke:#010101;stroke-width:8.54836;stroke-linecap:square;stroke-opacity:0"
       d="m 1166.5337,216.57005 c -3.6246,-3.6246 -3.1262,-22.8546 0.9518,-36.7195 8.0677,-27.43012 28.6352,-57.99422 41.6543,-61.90008 14.6374,-4.39132 8.6518,28.57196 -9.6093,52.9201 -6.6525,8.86986 -8.8123,7.731 -3.7829,-1.9947 5.5622,-10.75616 14.1603,-37.14734 12.8128,-39.32773 -0.6499,-1.05148 -2.6387,-1.91178 -4.4195,-1.91178 -4.2039,0 -21.501,35.94067 -26.1194,54.27176 -3.2173,12.77039 -3.2173,14.19475 -2e-4,17.4119 2.9537,2.95372 4.2166,3.05858 8.0446,0.66797 6.9686,-4.35193 7.7478,-1.01298 1.3275,5.68835 -8.895,9.28431 -17.8122,13.94122 -20.8597,10.89371 z"
       id="path81" /><path
       style="fill:#c87137;fill-opacity:1;stroke:#010101;stroke-width:8.54836;stroke-linecap:square;stroke-opacity:0"
       d=""
       id="path82" /><path
       style="fill:#5599ff;fill-opacity:1;stroke:#010101;stroke-width:8.54836;stroke-linecap:square;stroke-opacity:0"
       d=""
       id="path83" /><path
       style="fill:#c87137;fill-opacity:1;stroke:#010101;stroke-width:8.54836;stroke-linecap:square;stroke-opacity:0"
       d="m 1294.9091,266.31969 c 0,-10.81632 6.5772,-26.91905 22.7813,-55.77424 8.8765,-15.80683 13.325,-25.85628 12.0223,-27.15938 -2.7259,-2.72675 -11.9997,6.30238 -41.9166,40.81068 -13.2714,15.30822 -24.5189,27.4441 -24.9944,26.96863 -2.5603,-2.56033 9.8475,-39.69273 25.7476,-77.05413 9.7047,-22.80364 9.6254,-22.47489 5.4227,-22.47489 -1.7154,0 -14.8951,15.95455 -29.2883,35.45455 -25.8545,35.02779 -38.3563,49.41832 -40.805,46.96964 -1.2568,-1.25687 41.9966,-60.49256 69.7444,-95.5151 8.0813,-10.2 15.2358,-21.24545 15.8987,-24.54545 1.5163,-7.54715 10.1512,-8.36246 13.9231,-1.31462 3.2746,6.11857 0.9782,13.67335 -16.5235,54.35997 -13.7359,31.93226 -18.27,45.78456 -14.9129,45.56188 0.9953,-0.066 9.1733,-8.94351 18.1733,-19.72775 9,-10.78424 24.3437,-27.42112 34.0971,-36.97086 14.3577,-14.05794 19.0056,-17.36317 24.4167,-17.36317 3.6758,0 7.2553,0.9257 7.9546,2.0571 0.6992,1.1314 -7.702,15.61322 -18.6694,32.18182 -19.9596,30.15325 -38.2112,63.9139 -43.4153,80.30654 -3.3933,10.68909 -5.5939,13.5673 -13.4975,17.65444 l -6.1589,3.18489 z"
       id="path84" /><path
       style="fill:#c87137;fill-opacity:1;stroke:#010101;stroke-width:8.54836;stroke-linecap:square;stroke-opacity:0"
       d="m 1264.3877,245.83924 c -0.037,-4.41242 9.3158,-31.28896 21.6213,-62.13322 12.1086,-30.351 12.5375,-32.06966 8.0024,-32.06966 -2.8365,0 -17.3982,17.32585 -43.6632,51.95162 -5.7447,7.57339 -10.9386,13.27613 -11.542,12.67275 -1.0412,-1.04119 22.0346,-33.10671 52.6041,-73.09721 7.6901,-10.06006 15.2645,-20.86006 16.832,-24 5.1585,-10.33351 6.3704,-11.28104 11.1543,-8.72078 6.6727,3.57109 4.3858,13.1405 -13.3025,55.66472 -15.1131,36.33311 -18.0297,46.61981 -13.2183,46.61981 2.8224,0 -2.9944,7.94567 -17.5696,24 -5.9919,6.6 -10.9053,10.70039 -10.9185,9.11197 z"
       id="path85" /><path
       style="fill:#c87137;fill-opacity:1;stroke:#010101;stroke-width:8.54836;stroke-linecap:square;stroke-opacity:0"
       d="m 1314.5455,284.64035 c 0,-12.98808 24.8936,-44.27821 47.5333,-59.74728 30.9115,-21.12087 49.565,-12.69459 27.1386,12.25922 -7.4032,8.23743 -31.5762,25.7568 -35.5391,25.7568 -0.9048,0 6.6111,-8.12719 16.7019,-18.06042 17.2172,-16.94818 22.3753,-25.57594 15.2905,-25.57594 -10.6678,0 -53.6707,43.39719 -53.6707,54.16281 0,5.02214 0.5493,5.25187 10.0079,4.18574 12.022,-1.35505 10.3743,0.85575 -5.1796,6.94995 -15.1353,5.93022 -22.2828,5.95239 -22.2828,0.0691 z"
       id="path86" /><path
       style="fill:#c87137;fill-opacity:1;stroke:#010101;stroke-width:8.54836;stroke-linecap:square;stroke-opacity:0"
       d="m 1344.426,313.78027 c -2.609,-4.22148 7.7842,-21.29744 20.8173,-34.20261 18.4616,-18.28039 40.6275,-34.46112 61.6658,-45.01508 28.6784,-14.38662 49.0909,-17.51684 49.0909,-7.52798 0,9.84918 -35.1587,36.62118 -62.893,47.89064 -20.0914,8.16389 -20.4843,6.61038 -1.2784,-5.05476 37.3299,-22.67317 56.8598,-39.68866 45.5534,-39.68866 -9.9123,0 -56.8154,30.30173 -79.0598,51.07656 -14.982,13.99221 -17.0205,20.70223 -7.0495,23.20407 5.2233,1.3106 5.0846,1.5299 -3.2727,5.17334 -10.9772,4.78562 -21.982,6.72034 -23.574,4.14448 z"
       id="path87" /><path
       style="fill:#c87137;fill-opacity:1;stroke:#010101;stroke-width:8.54836;stroke-linecap:square;stroke-opacity:0"
       d="m 1375.0909,348.7011 c -9.9061,-2.64909 0.7508,-22.47828 19.3781,-36.05686 20.2884,-14.78939 32.9615,-19.84303 52.4562,-20.91796 16.8888,-0.93123 18.1322,-0.6854 23.4545,4.63691 6.7816,6.78158 7.688,12.72739 1.0217,6.70224 -8.0772,-7.30039 -28.0585,-5.62074 -47.9992,4.03488 -26.4594,12.81211 -46.2832,33.28916 -36.0345,37.22197 9.7136,3.72747 42.0586,-11.00011 54.9665,-25.02777 9.01,-9.79162 15.3884,-11.36197 20.6074,-5.0735 5.8488,7.04736 -21.0171,23.1227 -50.2143,30.04598 -16.946,4.01826 -32.3882,5.83757 -37.6364,4.43411 z"
       id="path88" /></g></svg>
